solid OpenSCAD_Model
  facet normal -0.99863 -0.0523357 0
    outer loop
      vertex -1.19343 -0.125434 0
      vertex -1.2 0 3
      vertex -1.2 0 0
    endloop
  endfacet
  facet normal -0.99863 -0.0523357 -0
    outer loop
      vertex -1.19343 -0.125434 18.2
      vertex -1.2 0 3
      vertex -1.19343 -0.125434 0
    endloop
  endfacet
  facet normal -0.99863 -0.0523357 0
    outer loop
      vertex -1.2 0 3
      vertex -1.19343 -0.125434 18.2
      vertex -1.2 0 18.2
    endloop
  endfacet
  facet normal 0 0 -1
    outer loop
      vertex 40 -1.2 0
      vertex 41.2 0 0
      vertex 41.1934 -0.125434 0
    endloop
  endfacet
  facet normal -0 0 -1
    outer loop
      vertex 41.2 0 0
      vertex 40 -1.2 0
      vertex 41.2 6.7 0
    endloop
  endfacet
  facet normal 0 0 -1
    outer loop
      vertex 40 -1.2 0
      vertex 41.1934 -0.125434 0
      vertex 41.1738 -0.249494 0
    endloop
  endfacet
  facet normal 0 0 -1
    outer loop
      vertex 40 7.9 0
      vertex 41.2 6.7 0
      vertex 40 -1.2 0
    endloop
  endfacet
  facet normal 0 0 -1
    outer loop
      vertex 40 -1.2 0
      vertex 41.1738 -0.249494 0
      vertex 41.1413 -0.37082 0
    endloop
  endfacet
  facet normal 0 0 -1
    outer loop
      vertex 41.2 6.7 0
      vertex 40 7.9 0
      vertex 41.1934 6.82543 0
    endloop
  endfacet
  facet normal 0 0 -1
    outer loop
      vertex 40 -1.2 0
      vertex 41.1413 -0.37082 0
      vertex 41.0963 -0.488084 0
    endloop
  endfacet
  facet normal 0 0 -1
    outer loop
      vertex 41.1934 6.82543 0
      vertex 40 7.9 0
      vertex 41.1738 6.94949 0
    endloop
  endfacet
  facet normal 0 0 -1
    outer loop
      vertex 40 -1.2 0
      vertex 41.0963 -0.488084 0
      vertex 41.0392 -0.599999 0
    endloop
  endfacet
  facet normal 0 0 -1
    outer loop
      vertex 41.1738 6.94949 0
      vertex 40 7.9 0
      vertex 41.1413 7.07082 0
    endloop
  endfacet
  facet normal 0 0 -1
    outer loop
      vertex 40 -1.2 0
      vertex 41.0392 -0.599999 0
      vertex 40.9708 -0.705342 0
    endloop
  endfacet
  facet normal 0 0 -1
    outer loop
      vertex 41.1413 7.07082 0
      vertex 40 7.9 0
      vertex 41.0963 7.18808 0
    endloop
  endfacet
  facet normal 0 0 -1
    outer loop
      vertex 40 -1.2 0
      vertex 40.9708 -0.705342 0
      vertex 40.8918 -0.802957 0
    endloop
  endfacet
  facet normal 0 0 -1
    outer loop
      vertex 41.0963 7.18808 0
      vertex 40 7.9 0
      vertex 41.0392 7.3 0
    endloop
  endfacet
  facet normal 0 0 -1
    outer loop
      vertex 40 -1.2 0
      vertex 40.8918 -0.802957 0
      vertex 40.803 -0.891773 0
    endloop
  endfacet
  facet normal 0 0 -1
    outer loop
      vertex 41.0392 7.3 0
      vertex 40 7.9 0
      vertex 40.9708 7.40534 0
    endloop
  endfacet
  facet normal 0 0 -1
    outer loop
      vertex 40 -1.2 0
      vertex 40.803 -0.891773 0
      vertex 40.7053 -0.970819 0
    endloop
  endfacet
  facet normal 0 0 -1
    outer loop
      vertex 40.9708 7.40534 0
      vertex 40 7.9 0
      vertex 40.8918 7.50296 0
    endloop
  endfacet
  facet normal 0 0 -1
    outer loop
      vertex 40 -1.2 0
      vertex 40.7053 -0.970819 0
      vertex 40.6 -1.03923 0
    endloop
  endfacet
  facet normal 0 0 -1
    outer loop
      vertex 40.8918 7.50296 0
      vertex 40 7.9 0
      vertex 40.803 7.59177 0
    endloop
  endfacet
  facet normal 0 0 -1
    outer loop
      vertex 40 -1.2 0
      vertex 40.6 -1.03923 0
      vertex 40.4881 -1.09625 0
    endloop
  endfacet
  facet normal 0 0 -1
    outer loop
      vertex 40.803 7.59177 0
      vertex 40 7.9 0
      vertex 40.7053 7.67082 0
    endloop
  endfacet
  facet normal 0 0 -1
    outer loop
      vertex 40 -1.2 0
      vertex 40.4881 -1.09625 0
      vertex 40.3708 -1.14127 0
    endloop
  endfacet
  facet normal 0 0 -1
    outer loop
      vertex 40.7053 7.67082 0
      vertex 40 7.9 0
      vertex 40.6 7.73923 0
    endloop
  endfacet
  facet normal 0 0 -1
    outer loop
      vertex 40 -1.2 0
      vertex 40.3708 -1.14127 0
      vertex 40.2495 -1.17378 0
    endloop
  endfacet
  facet normal 0 0 -1
    outer loop
      vertex 40.6 7.73923 0
      vertex 40 7.9 0
      vertex 40.4881 7.79625 0
    endloop
  endfacet
  facet normal 0 0 -1
    outer loop
      vertex 40 -1.2 0
      vertex 40.2495 -1.17378 0
      vertex 40.1254 -1.19343 0
    endloop
  endfacet
  facet normal 0 0 -1
    outer loop
      vertex 40.4881 7.79625 0
      vertex 40 7.9 0
      vertex 40.3708 7.84127 0
    endloop
  endfacet
  facet normal 0 0 -1
    outer loop
      vertex 40.3708 7.84127 0
      vertex 40 7.9 0
      vertex 40.2495 7.87378 0
    endloop
  endfacet
  facet normal 0 0 -1
    outer loop
      vertex 40.2495 7.87378 0
      vertex 40 7.9 0
      vertex 40.1254 7.89343 0
    endloop
  endfacet
  facet normal 0 0 -1
    outer loop
      vertex 0 -1.2 0
      vertex 40 7.9 0
      vertex 40 -1.2 0
    endloop
  endfacet
  facet normal 0 0 -1
    outer loop
      vertex 0 -1.2 0
      vertex 0 7.9 0
      vertex 40 7.9 0
    endloop
  endfacet
  facet normal 0 0 -1
    outer loop
      vertex -1.2 0 0
      vertex 0 -1.2 0
      vertex -0.125434 -1.19343 0
    endloop
  endfacet
  facet normal 0 0 -1
    outer loop
      vertex 0 -1.2 0
      vertex -1.2 0 0
      vertex 0 7.9 0
    endloop
  endfacet
  facet normal 0 0 -1
    outer loop
      vertex -1.2 0 0
      vertex -0.125434 -1.19343 0
      vertex -0.249494 -1.17378 0
    endloop
  endfacet
  facet normal 0 0 -1
    outer loop
      vertex -1.2 6.7 0
      vertex 0 7.9 0
      vertex -1.2 0 0
    endloop
  endfacet
  facet normal 0 0 -1
    outer loop
      vertex -1.2 0 0
      vertex -0.249494 -1.17378 0
      vertex -0.37082 -1.14127 0
    endloop
  endfacet
  facet normal 0 0 -1
    outer loop
      vertex 0 7.9 0
      vertex -1.2 6.7 0
      vertex -0.125434 7.89343 0
    endloop
  endfacet
  facet normal 0 0 -1
    outer loop
      vertex -1.2 0 0
      vertex -0.37082 -1.14127 0
      vertex -0.488084 -1.09625 0
    endloop
  endfacet
  facet normal 0 0 -1
    outer loop
      vertex -0.125434 7.89343 0
      vertex -1.2 6.7 0
      vertex -0.249494 7.87378 0
    endloop
  endfacet
  facet normal 0 0 -1
    outer loop
      vertex -1.2 0 0
      vertex -0.488084 -1.09625 0
      vertex -0.599999 -1.03923 0
    endloop
  endfacet
  facet normal 0 0 -1
    outer loop
      vertex -0.249494 7.87378 0
      vertex -1.2 6.7 0
      vertex -0.37082 7.84127 0
    endloop
  endfacet
  facet normal 0 0 -1
    outer loop
      vertex -1.2 0 0
      vertex -0.599999 -1.03923 0
      vertex -0.705342 -0.970819 0
    endloop
  endfacet
  facet normal 0 0 -1
    outer loop
      vertex -0.37082 7.84127 0
      vertex -1.2 6.7 0
      vertex -0.488084 7.79625 0
    endloop
  endfacet
  facet normal 0 0 -1
    outer loop
      vertex -1.2 0 0
      vertex -0.705342 -0.970819 0
      vertex -0.802957 -0.891773 0
    endloop
  endfacet
  facet normal 0 0 -1
    outer loop
      vertex -0.488084 7.79625 0
      vertex -1.2 6.7 0
      vertex -0.599999 7.73923 0
    endloop
  endfacet
  facet normal 0 0 -1
    outer loop
      vertex -1.2 0 0
      vertex -0.802957 -0.891773 0
      vertex -0.891773 -0.802957 0
    endloop
  endfacet
  facet normal 0 0 -1
    outer loop
      vertex -0.599999 7.73923 0
      vertex -1.2 6.7 0
      vertex -0.705342 7.67082 0
    endloop
  endfacet
  facet normal 0 0 -1
    outer loop
      vertex -1.2 0 0
      vertex -0.891773 -0.802957 0
      vertex -0.970819 -0.705342 0
    endloop
  endfacet
  facet normal 0 0 -1
    outer loop
      vertex -0.705342 7.67082 0
      vertex -1.2 6.7 0
      vertex -0.802957 7.59177 0
    endloop
  endfacet
  facet normal 0 0 -1
    outer loop
      vertex -1.2 0 0
      vertex -0.970819 -0.705342 0
      vertex -1.03923 -0.599999 0
    endloop
  endfacet
  facet normal 0 0 -1
    outer loop
      vertex -0.802957 7.59177 0
      vertex -1.2 6.7 0
      vertex -0.891773 7.50296 0
    endloop
  endfacet
  facet normal 0 0 -1
    outer loop
      vertex -1.2 0 0
      vertex -1.03923 -0.599999 0
      vertex -1.09625 -0.488084 0
    endloop
  endfacet
  facet normal 0 0 -1
    outer loop
      vertex -0.891773 7.50296 0
      vertex -1.2 6.7 0
      vertex -0.970819 7.40534 0
    endloop
  endfacet
  facet normal 0 0 -1
    outer loop
      vertex -1.2 0 0
      vertex -1.09625 -0.488084 0
      vertex -1.14127 -0.37082 0
    endloop
  endfacet
  facet normal 0 0 -1
    outer loop
      vertex -0.970819 7.40534 0
      vertex -1.2 6.7 0
      vertex -1.03923 7.3 0
    endloop
  endfacet
  facet normal 0 0 -1
    outer loop
      vertex -1.2 0 0
      vertex -1.14127 -0.37082 0
      vertex -1.17378 -0.249494 0
    endloop
  endfacet
  facet normal 0 0 -1
    outer loop
      vertex -1.03923 7.3 0
      vertex -1.2 6.7 0
      vertex -1.09625 7.18808 0
    endloop
  endfacet
  facet normal 0 0 -1
    outer loop
      vertex -1.2 0 0
      vertex -1.17378 -0.249494 0
      vertex -1.19343 -0.125434 0
    endloop
  endfacet
  facet normal 0 0 -1
    outer loop
      vertex -1.09625 7.18808 0
      vertex -1.2 6.7 0
      vertex -1.14127 7.07082 0
    endloop
  endfacet
  facet normal 0 0 -1
    outer loop
      vertex -1.14127 7.07082 0
      vertex -1.2 6.7 0
      vertex -1.17378 6.94949 0
    endloop
  endfacet
  facet normal 0 0 -1
    outer loop
      vertex -1.17378 6.94949 0
      vertex -1.2 6.7 0
      vertex -1.19343 6.82543 0
    endloop
  endfacet
  facet normal -1 0 0
    outer loop
      vertex -1.2 0 0
      vertex -1.2 6.7 3
      vertex -1.2 6.7 0
    endloop
  endfacet
  facet normal -1 -0 0
    outer loop
      vertex -1.2 6.7 3
      vertex -1.2 0 0
      vertex -1.2 0 3
    endloop
  endfacet
  facet normal 0.258816 -0.965927 0
    outer loop
      vertex 40.2495 -1.17378 0
      vertex 40.3708 -1.14127 18.2
      vertex 40.2495 -1.17378 18.2
    endloop
  endfacet
  facet normal 0.258816 -0.965927 0
    outer loop
      vertex 40.3708 -1.14127 18.2
      vertex 40.2495 -1.17378 0
      vertex 40.3708 -1.14127 0
    endloop
  endfacet
  facet normal 0.99863 -0.0523281 0
    outer loop
      vertex 41.1934 -0.125434 18.2
      vertex 41.2 0 3
      vertex 41.2 0 18.2
    endloop
  endfacet
  facet normal 0.99863 -0.0523281 0
    outer loop
      vertex 41.1934 -0.125434 0
      vertex 41.2 0 3
      vertex 41.1934 -0.125434 18.2
    endloop
  endfacet
  facet normal 0.99863 -0.0523281 0
    outer loop
      vertex 41.2 0 3
      vertex 41.1934 -0.125434 0
      vertex 41.2 0 0
    endloop
  endfacet
  facet normal 1 -0 0
    outer loop
      vertex 41.2 0 3
      vertex 41.2 6.7 0
      vertex 41.2 6.7 3
    endloop
  endfacet
  facet normal 1 0 0
    outer loop
      vertex 41.2 6.7 0
      vertex 41.2 0 3
      vertex 41.2 0 0
    endloop
  endfacet
  facet normal 0 -1 0
    outer loop
      vertex 0 -1.2 0
      vertex 40 -1.2 18.2
      vertex 0 -1.2 18.2
    endloop
  endfacet
  facet normal 0 -1 -0
    outer loop
      vertex 40 -1.2 18.2
      vertex 0 -1.2 0
      vertex 40 -1.2 0
    endloop
  endfacet
  facet normal 0.0523353 -0.99863 0
    outer loop
      vertex 40 -1.2 0
      vertex 40.1254 -1.19343 18.2
      vertex 40 -1.2 18.2
    endloop
  endfacet
  facet normal 0.0523353 -0.99863 0
    outer loop
      vertex 40.1254 -1.19343 18.2
      vertex 40 -1.2 0
      vertex 40.1254 -1.19343 0
    endloop
  endfacet
  facet normal -0.156437 0.987688 0
    outer loop
      vertex -0.125434 7.89343 0
      vertex -0.249494 7.87378 18.2
      vertex -0.125434 7.89343 18.2
    endloop
  endfacet
  facet normal -0.156437 0.987688 0
    outer loop
      vertex -0.249494 7.87378 18.2
      vertex -0.125434 7.89343 0
      vertex -0.249494 7.87378 0
    endloop
  endfacet
  facet normal 0.777154 -0.62931 0
    outer loop
      vertex 40.8918 -0.802957 18.2
      vertex 40.9708 -0.705342 0
      vertex 40.9708 -0.705342 18.2
    endloop
  endfacet
  facet normal 0.777154 -0.62931 0
    outer loop
      vertex 40.9708 -0.705342 0
      vertex 40.8918 -0.802957 18.2
      vertex 40.8918 -0.802957 0
    endloop
  endfacet
  facet normal 0.987683 -0.156467 0
    outer loop
      vertex 41.1738 -0.249494 18.2
      vertex 41.1934 -0.125434 0
      vertex 41.1934 -0.125434 18.2
    endloop
  endfacet
  facet normal 0.987683 -0.156467 0
    outer loop
      vertex 41.1934 -0.125434 0
      vertex 41.1738 -0.249494 18.2
      vertex 41.1738 -0.249494 0
    endloop
  endfacet
  facet normal 0.15644 -0.987687 0
    outer loop
      vertex 40.1254 -1.19343 0
      vertex 40.2495 -1.17378 18.2
      vertex 40.1254 -1.19343 18.2
    endloop
  endfacet
  facet normal 0.15644 -0.987687 0
    outer loop
      vertex 40.2495 -1.17378 18.2
      vertex 40.1254 -1.19343 0
      vertex 40.2495 -1.17378 0
    endloop
  endfacet
  facet normal -0.629319 -0.777147 0
    outer loop
      vertex -0.802957 -0.891773 0
      vertex -0.705342 -0.970819 18.2
      vertex -0.802957 -0.891773 18.2
    endloop
  endfacet
  facet normal -0.629319 -0.777147 -0
    outer loop
      vertex -0.705342 -0.970819 18.2
      vertex -0.802957 -0.891773 0
      vertex -0.705342 -0.970819 0
    endloop
  endfacet
  facet normal -0.258816 -0.965927 0
    outer loop
      vertex -0.37082 -1.14127 0
      vertex -0.249494 -1.17378 18.2
      vertex -0.37082 -1.14127 18.2
    endloop
  endfacet
  facet normal -0.258816 -0.965927 -0
    outer loop
      vertex -0.249494 -1.17378 18.2
      vertex -0.37082 -1.14127 0
      vertex -0.249494 -1.17378 0
    endloop
  endfacet
  facet normal -0 0 1
    outer loop
      vertex 41.1934 6.57456 3
      vertex 41.2 0 3
      vertex 41.2 6.7 3
    endloop
  endfacet
  facet normal 0 0 1
    outer loop
      vertex 41.1934 6.57456 3
      vertex 41.1934 0.125434 3
      vertex 41.2 0 3
    endloop
  endfacet
  facet normal -0 0 1
    outer loop
      vertex 41.1738 6.45051 3
      vertex 41.1934 0.125434 3
      vertex 41.1934 6.57456 3
    endloop
  endfacet
  facet normal 0 0 1
    outer loop
      vertex 41.1738 6.45051 3
      vertex 41.1738 0.249494 3
      vertex 41.1934 0.125434 3
    endloop
  endfacet
  facet normal -0 0 1
    outer loop
      vertex 41.1413 6.32918 3
      vertex 41.1738 0.249494 3
      vertex 41.1738 6.45051 3
    endloop
  endfacet
  facet normal 0 0 1
    outer loop
      vertex 41.1413 6.32918 3
      vertex 41.1413 0.37082 3
      vertex 41.1738 0.249494 3
    endloop
  endfacet
  facet normal -0 0 1
    outer loop
      vertex 41.0963 6.21192 3
      vertex 41.1413 0.37082 3
      vertex 41.1413 6.32918 3
    endloop
  endfacet
  facet normal 0 0 1
    outer loop
      vertex 41.0963 6.21192 3
      vertex 41.0963 0.488084 3
      vertex 41.1413 0.37082 3
    endloop
  endfacet
  facet normal -0 0 1
    outer loop
      vertex 41.0392 6.1 3
      vertex 41.0963 0.488084 3
      vertex 41.0963 6.21192 3
    endloop
  endfacet
  facet normal 0 0 1
    outer loop
      vertex 41.0392 6.1 3
      vertex 41.0392 0.599999 3
      vertex 41.0963 0.488084 3
    endloop
  endfacet
  facet normal -0 0 1
    outer loop
      vertex 40.9708 5.99466 3
      vertex 41.0392 0.599999 3
      vertex 41.0392 6.1 3
    endloop
  endfacet
  facet normal 0 0 1
    outer loop
      vertex 40.9708 5.99466 3
      vertex 40.9708 0.705342 3
      vertex 41.0392 0.599999 3
    endloop
  endfacet
  facet normal -0 0 1
    outer loop
      vertex 40.8918 5.89704 3
      vertex 40.9708 0.705342 3
      vertex 40.9708 5.99466 3
    endloop
  endfacet
  facet normal 0 0 1
    outer loop
      vertex 40.8918 5.89704 3
      vertex 40.8918 0.802957 3
      vertex 40.9708 0.705342 3
    endloop
  endfacet
  facet normal -0 0 1
    outer loop
      vertex 40.803 5.80823 3
      vertex 40.8918 0.802957 3
      vertex 40.8918 5.89704 3
    endloop
  endfacet
  facet normal 0 0 1
    outer loop
      vertex 40.803 5.80823 3
      vertex 40.803 0.891773 3
      vertex 40.8918 0.802957 3
    endloop
  endfacet
  facet normal -0 0 1
    outer loop
      vertex 40.7053 5.72918 3
      vertex 40.803 0.891773 3
      vertex 40.803 5.80823 3
    endloop
  endfacet
  facet normal 0 0 1
    outer loop
      vertex 40.7053 5.72918 3
      vertex 40.7053 0.970819 3
      vertex 40.803 0.891773 3
    endloop
  endfacet
  facet normal -0 0 1
    outer loop
      vertex 40.6 5.66077 3
      vertex 40.7053 0.970819 3
      vertex 40.7053 5.72918 3
    endloop
  endfacet
  facet normal 0 0 1
    outer loop
      vertex 40.6 5.66077 3
      vertex 40.6 1.03923 3
      vertex 40.7053 0.970819 3
    endloop
  endfacet
  facet normal -0 0 1
    outer loop
      vertex 40.4881 5.60374 3
      vertex 40.6 1.03923 3
      vertex 40.6 5.66077 3
    endloop
  endfacet
  facet normal 0 0 1
    outer loop
      vertex 40.4881 5.60374 3
      vertex 40.4881 1.09625 3
      vertex 40.6 1.03923 3
    endloop
  endfacet
  facet normal -0 0 1
    outer loop
      vertex 40.3708 5.55873 3
      vertex 40.4881 1.09625 3
      vertex 40.4881 5.60374 3
    endloop
  endfacet
  facet normal 0 0 1
    outer loop
      vertex 40.3708 5.55873 3
      vertex 40.3708 1.14127 3
      vertex 40.4881 1.09625 3
    endloop
  endfacet
  facet normal -0 0 1
    outer loop
      vertex 40.2495 5.52622 3
      vertex 40.3708 1.14127 3
      vertex 40.3708 5.55873 3
    endloop
  endfacet
  facet normal 0 0 1
    outer loop
      vertex 40.2495 5.52622 3
      vertex 40.2495 1.17378 3
      vertex 40.3708 1.14127 3
    endloop
  endfacet
  facet normal -0 0 1
    outer loop
      vertex 40.1254 5.50657 3
      vertex 40.2495 1.17378 3
      vertex 40.2495 5.52622 3
    endloop
  endfacet
  facet normal 0 0 1
    outer loop
      vertex 40.1254 5.50657 3
      vertex 40.1254 1.19343 3
      vertex 40.2495 1.17378 3
    endloop
  endfacet
  facet normal -0 0 1
    outer loop
      vertex 40 5.5 3
      vertex 40.1254 1.19343 3
      vertex 40.1254 5.50657 3
    endloop
  endfacet
  facet normal 0 0 1
    outer loop
      vertex 40 5.5 3
      vertex 40 1.2 3
      vertex 40.1254 1.19343 3
    endloop
  endfacet
  facet normal -0 0 1
    outer loop
      vertex 0 5.5 3
      vertex 40 1.2 3
      vertex 40 5.5 3
    endloop
  endfacet
  facet normal 0 0 1
    outer loop
      vertex 0 5.5 3
      vertex 0 1.2 3
      vertex 40 1.2 3
    endloop
  endfacet
  facet normal 0 0 1
    outer loop
      vertex -0.125434 5.50657 3
      vertex 0 1.2 3
      vertex 0 5.5 3
    endloop
  endfacet
  facet normal 0 0 1
    outer loop
      vertex -0.125434 5.50657 3
      vertex -0.125434 1.19343 3
      vertex 0 1.2 3
    endloop
  endfacet
  facet normal 0 0 1
    outer loop
      vertex -0.249494 5.52622 3
      vertex -0.125434 1.19343 3
      vertex -0.125434 5.50657 3
    endloop
  endfacet
  facet normal 0 0 1
    outer loop
      vertex -0.249494 5.52622 3
      vertex -0.249494 1.17378 3
      vertex -0.125434 1.19343 3
    endloop
  endfacet
  facet normal 0 0 1
    outer loop
      vertex -0.37082 5.55873 3
      vertex -0.249494 1.17378 3
      vertex -0.249494 5.52622 3
    endloop
  endfacet
  facet normal 0 0 1
    outer loop
      vertex -0.37082 5.55873 3
      vertex -0.37082 1.14127 3
      vertex -0.249494 1.17378 3
    endloop
  endfacet
  facet normal 0 0 1
    outer loop
      vertex -0.488084 5.60374 3
      vertex -0.37082 1.14127 3
      vertex -0.37082 5.55873 3
    endloop
  endfacet
  facet normal 0 0 1
    outer loop
      vertex -0.488084 5.60374 3
      vertex -0.488084 1.09625 3
      vertex -0.37082 1.14127 3
    endloop
  endfacet
  facet normal 0 0 1
    outer loop
      vertex -0.599999 5.66077 3
      vertex -0.488084 1.09625 3
      vertex -0.488084 5.60374 3
    endloop
  endfacet
  facet normal 0 0 1
    outer loop
      vertex -0.599999 5.66077 3
      vertex -0.599999 1.03923 3
      vertex -0.488084 1.09625 3
    endloop
  endfacet
  facet normal 0 0 1
    outer loop
      vertex -0.705342 5.72918 3
      vertex -0.599999 1.03923 3
      vertex -0.599999 5.66077 3
    endloop
  endfacet
  facet normal 0 0 1
    outer loop
      vertex -0.705342 5.72918 3
      vertex -0.705342 0.970819 3
      vertex -0.599999 1.03923 3
    endloop
  endfacet
  facet normal 0 0 1
    outer loop
      vertex -0.802957 5.80823 3
      vertex -0.705342 0.970819 3
      vertex -0.705342 5.72918 3
    endloop
  endfacet
  facet normal 0 0 1
    outer loop
      vertex -0.802957 5.80823 3
      vertex -0.802957 0.891773 3
      vertex -0.705342 0.970819 3
    endloop
  endfacet
  facet normal 0 0 1
    outer loop
      vertex -0.891773 5.89704 3
      vertex -0.802957 0.891773 3
      vertex -0.802957 5.80823 3
    endloop
  endfacet
  facet normal 0 0 1
    outer loop
      vertex -0.891773 5.89704 3
      vertex -0.891773 0.802957 3
      vertex -0.802957 0.891773 3
    endloop
  endfacet
  facet normal 0 0 1
    outer loop
      vertex -0.970819 5.99466 3
      vertex -0.891773 0.802957 3
      vertex -0.891773 5.89704 3
    endloop
  endfacet
  facet normal 0 0 1
    outer loop
      vertex -0.970819 5.99466 3
      vertex -0.970819 0.705342 3
      vertex -0.891773 0.802957 3
    endloop
  endfacet
  facet normal 0 0 1
    outer loop
      vertex -1.03923 6.1 3
      vertex -0.970819 0.705342 3
      vertex -0.970819 5.99466 3
    endloop
  endfacet
  facet normal 0 0 1
    outer loop
      vertex -1.03923 6.1 3
      vertex -1.03923 0.599999 3
      vertex -0.970819 0.705342 3
    endloop
  endfacet
  facet normal 0 0 1
    outer loop
      vertex -1.09625 6.21192 3
      vertex -1.03923 0.599999 3
      vertex -1.03923 6.1 3
    endloop
  endfacet
  facet normal 0 0 1
    outer loop
      vertex -1.09625 6.21192 3
      vertex -1.09625 0.488084 3
      vertex -1.03923 0.599999 3
    endloop
  endfacet
  facet normal 0 0 1
    outer loop
      vertex -1.14127 6.32918 3
      vertex -1.09625 0.488084 3
      vertex -1.09625 6.21192 3
    endloop
  endfacet
  facet normal 0 0 1
    outer loop
      vertex -1.14127 6.32918 3
      vertex -1.14127 0.37082 3
      vertex -1.09625 0.488084 3
    endloop
  endfacet
  facet normal 0 0 1
    outer loop
      vertex -1.17378 6.45051 3
      vertex -1.14127 0.37082 3
      vertex -1.14127 6.32918 3
    endloop
  endfacet
  facet normal 0 0 1
    outer loop
      vertex -1.17378 6.45051 3
      vertex -1.17378 0.249494 3
      vertex -1.14127 0.37082 3
    endloop
  endfacet
  facet normal 0 0 1
    outer loop
      vertex -1.19343 6.57456 3
      vertex -1.17378 0.249494 3
      vertex -1.17378 6.45051 3
    endloop
  endfacet
  facet normal 0 0 1
    outer loop
      vertex -1.19343 6.57456 3
      vertex -1.19343 0.125434 3
      vertex -1.17378 0.249494 3
    endloop
  endfacet
  facet normal 0 0 1
    outer loop
      vertex -1.2 6.7 3
      vertex -1.19343 0.125434 3
      vertex -1.19343 6.57456 3
    endloop
  endfacet
  facet normal 0 0 1
    outer loop
      vertex -1.19343 0.125434 3
      vertex -1.2 6.7 3
      vertex -1.2 0 3
    endloop
  endfacet
  facet normal -0.99863 0.0523357 0
    outer loop
      vertex -1.2 6.7 3
      vertex -1.19343 6.82543 0
      vertex -1.2 6.7 0
    endloop
  endfacet
  facet normal -0.99863 0.0523357 0
    outer loop
      vertex -1.19343 6.82543 0
      vertex -1.2 6.7 3
      vertex -1.19343 6.82543 18.2
    endloop
  endfacet
  facet normal -0.99863 0.0523357 0
    outer loop
      vertex -1.19343 6.82543 18.2
      vertex -1.2 6.7 3
      vertex -1.2 6.7 18.2
    endloop
  endfacet
  facet normal 0 1 -0
    outer loop
      vertex 40 7.9 0
      vertex 0 7.9 18.2
      vertex 40 7.9 18.2
    endloop
  endfacet
  facet normal 0 1 0
    outer loop
      vertex 0 7.9 18.2
      vertex 40 7.9 0
      vertex 0 7.9 0
    endloop
  endfacet
  facet normal 0.0523353 0.99863 -0
    outer loop
      vertex 40.1254 7.89343 0
      vertex 40 7.9 18.2
      vertex 40.1254 7.89343 18.2
    endloop
  endfacet
  facet normal 0.0523353 0.99863 0
    outer loop
      vertex 40 7.9 18.2
      vertex 40.1254 7.89343 0
      vertex 40 7.9 0
    endloop
  endfacet
  facet normal 0.544641 -0.838669 0
    outer loop
      vertex 40.6 -1.03923 0
      vertex 40.7053 -0.970819 18.2
      vertex 40.6 -1.03923 18.2
    endloop
  endfacet
  facet normal 0.544641 -0.838669 0
    outer loop
      vertex 40.7053 -0.970819 18.2
      vertex 40.6 -1.03923 0
      vertex 40.7053 -0.970819 0
    endloop
  endfacet
  facet normal 0.93358 -0.358368 0
    outer loop
      vertex 41.0963 -0.488084 18.2
      vertex 41.1413 -0.37082 0
      vertex 41.1413 -0.37082 18.2
    endloop
  endfacet
  facet normal 0.93358 -0.358368 0
    outer loop
      vertex 41.1413 -0.37082 0
      vertex 41.0963 -0.488084 18.2
      vertex 41.0963 -0.488084 0
    endloop
  endfacet
  facet normal 0.707103 -0.707111 0
    outer loop
      vertex 40.803 -0.891773 0
      vertex 40.8918 -0.802957 18.2
      vertex 40.803 -0.891773 18.2
    endloop
  endfacet
  facet normal 0.707103 -0.707111 0
    outer loop
      vertex 40.8918 -0.802957 18.2
      vertex 40.803 -0.891773 0
      vertex 40.8918 -0.802957 0
    endloop
  endfacet
  facet normal -0.0523357 -0.99863 0
    outer loop
      vertex -0.125434 -1.19343 0
      vertex 0 -1.2 18.2
      vertex -0.125434 -1.19343 18.2
    endloop
  endfacet
  facet normal -0.0523357 -0.99863 -0
    outer loop
      vertex 0 -1.2 18.2
      vertex -0.125434 -1.19343 0
      vertex 0 -1.2 0
    endloop
  endfacet
  facet normal -0.891006 -0.453992 0
    outer loop
      vertex -1.03923 -0.599999 0
      vertex -1.09625 -0.488084 18.2
      vertex -1.09625 -0.488084 0
    endloop
  endfacet
  facet normal -0.891006 -0.453992 0
    outer loop
      vertex -1.09625 -0.488084 18.2
      vertex -1.03923 -0.599999 0
      vertex -1.03923 -0.599999 18.2
    endloop
  endfacet
  facet normal -0.777147 -0.629319 0
    outer loop
      vertex -0.891773 -0.802957 0
      vertex -0.970819 -0.705342 18.2
      vertex -0.970819 -0.705342 0
    endloop
  endfacet
  facet normal -0.777147 -0.629319 0
    outer loop
      vertex -0.970819 -0.705342 18.2
      vertex -0.891773 -0.802957 0
      vertex -0.891773 -0.802957 18.2
    endloop
  endfacet
  facet normal -0.707107 0.707107 0
    outer loop
      vertex -0.891773 7.50296 0
      vertex -0.802957 7.59177 18.2
      vertex -0.802957 7.59177 0
    endloop
  endfacet
  facet normal -0.707107 0.707107 0
    outer loop
      vertex -0.802957 7.59177 18.2
      vertex -0.891773 7.50296 0
      vertex -0.891773 7.50296 18.2
    endloop
  endfacet
  facet normal -0.0523357 0.99863 0
    outer loop
      vertex 0 7.9 0
      vertex -0.125434 7.89343 18.2
      vertex 0 7.9 18.2
    endloop
  endfacet
  facet normal -0.0523357 0.99863 0
    outer loop
      vertex -0.125434 7.89343 18.2
      vertex 0 7.9 0
      vertex -0.125434 7.89343 0
    endloop
  endfacet
  facet normal 0.707103 0.707111 -0
    outer loop
      vertex 40.8918 7.50296 0
      vertex 40.803 7.59177 18.2
      vertex 40.8918 7.50296 18.2
    endloop
  endfacet
  facet normal 0.707103 0.707111 0
    outer loop
      vertex 40.803 7.59177 18.2
      vertex 40.8918 7.50296 0
      vertex 40.803 7.59177 0
    endloop
  endfacet
  facet normal 0.965927 -0.258816 0
    outer loop
      vertex 41.1413 -0.37082 18.2
      vertex 41.1738 -0.249494 0
      vertex 41.1738 -0.249494 18.2
    endloop
  endfacet
  facet normal 0.965927 -0.258816 0
    outer loop
      vertex 41.1738 -0.249494 0
      vertex 41.1413 -0.37082 18.2
      vertex 41.1413 -0.37082 0
    endloop
  endfacet
  facet normal 0.891012 -0.453979 0
    outer loop
      vertex 41.0392 -0.599999 18.2
      vertex 41.0963 -0.488084 0
      vertex 41.0963 -0.488084 18.2
    endloop
  endfacet
  facet normal 0.891012 -0.453979 0
    outer loop
      vertex 41.0963 -0.488084 0
      vertex 41.0392 -0.599999 18.2
      vertex 41.0392 -0.599999 0
    endloop
  endfacet
  facet normal 0.453992 -0.891006 0
    outer loop
      vertex 40.4881 -1.09625 0
      vertex 40.6 -1.03923 18.2
      vertex 40.4881 -1.09625 18.2
    endloop
  endfacet
  facet normal 0.453992 -0.891006 0
    outer loop
      vertex 40.6 -1.03923 18.2
      vertex 40.4881 -1.09625 0
      vertex 40.6 -1.03923 0
    endloop
  endfacet
  facet normal 0.358368 -0.93358 0
    outer loop
      vertex 40.3708 -1.14127 0
      vertex 40.4881 -1.09625 18.2
      vertex 40.3708 -1.14127 18.2
    endloop
  endfacet
  facet normal 0.358368 -0.93358 0
    outer loop
      vertex 40.4881 -1.09625 18.2
      vertex 40.3708 -1.14127 0
      vertex 40.4881 -1.09625 0
    endloop
  endfacet
  facet normal -0.453992 -0.891006 0
    outer loop
      vertex -0.599999 -1.03923 0
      vertex -0.488084 -1.09625 18.2
      vertex -0.599999 -1.03923 18.2
    endloop
  endfacet
  facet normal -0.453992 -0.891006 -0
    outer loop
      vertex -0.488084 -1.09625 18.2
      vertex -0.599999 -1.03923 0
      vertex -0.488084 -1.09625 0
    endloop
  endfacet
  facet normal -0.358368 -0.93358 0
    outer loop
      vertex -0.488084 -1.09625 0
      vertex -0.37082 -1.14127 18.2
      vertex -0.488084 -1.09625 18.2
    endloop
  endfacet
  facet normal -0.358368 -0.93358 -0
    outer loop
      vertex -0.37082 -1.14127 18.2
      vertex -0.488084 -1.09625 0
      vertex -0.37082 -1.14127 0
    endloop
  endfacet
  facet normal -0.707107 -0.707107 0
    outer loop
      vertex -0.802957 -0.891773 0
      vertex -0.891773 -0.802957 18.2
      vertex -0.891773 -0.802957 0
    endloop
  endfacet
  facet normal -0.707107 -0.707107 0
    outer loop
      vertex -0.891773 -0.802957 18.2
      vertex -0.802957 -0.891773 0
      vertex -0.802957 -0.891773 18.2
    endloop
  endfacet
  facet normal -0.93358 -0.358368 0
    outer loop
      vertex -1.09625 -0.488084 0
      vertex -1.14127 -0.37082 18.2
      vertex -1.14127 -0.37082 0
    endloop
  endfacet
  facet normal -0.93358 -0.358368 0
    outer loop
      vertex -1.14127 -0.37082 18.2
      vertex -1.09625 -0.488084 0
      vertex -1.09625 -0.488084 18.2
    endloop
  endfacet
  facet normal -0.544636 0.838673 0
    outer loop
      vertex -0.599999 7.73923 0
      vertex -0.705342 7.67082 18.2
      vertex -0.599999 7.73923 18.2
    endloop
  endfacet
  facet normal -0.544636 0.838673 0
    outer loop
      vertex -0.705342 7.67082 18.2
      vertex -0.599999 7.73923 0
      vertex -0.705342 7.67082 0
    endloop
  endfacet
  facet normal -0.453992 0.891006 0
    outer loop
      vertex -0.488084 7.79625 0
      vertex -0.599999 7.73923 18.2
      vertex -0.488084 7.79625 18.2
    endloop
  endfacet
  facet normal -0.453992 0.891006 0
    outer loop
      vertex -0.599999 7.73923 18.2
      vertex -0.488084 7.79625 0
      vertex -0.599999 7.73923 0
    endloop
  endfacet
  facet normal -0.258816 0.965927 0
    outer loop
      vertex -0.249494 7.87378 0
      vertex -0.37082 7.84127 18.2
      vertex -0.249494 7.87378 18.2
    endloop
  endfacet
  facet normal -0.258816 0.965927 0
    outer loop
      vertex -0.37082 7.84127 18.2
      vertex -0.249494 7.87378 0
      vertex -0.37082 7.84127 0
    endloop
  endfacet
  facet normal -0.891006 0.453992 0
    outer loop
      vertex -1.09625 7.18808 0
      vertex -1.03923 7.3 18.2
      vertex -1.03923 7.3 0
    endloop
  endfacet
  facet normal -0.891006 0.453992 0
    outer loop
      vertex -1.03923 7.3 18.2
      vertex -1.09625 7.18808 0
      vertex -1.09625 7.18808 18.2
    endloop
  endfacet
  facet normal -0.93358 0.358368 0
    outer loop
      vertex -1.14127 7.07082 0
      vertex -1.09625 7.18808 18.2
      vertex -1.09625 7.18808 0
    endloop
  endfacet
  facet normal -0.93358 0.358368 0
    outer loop
      vertex -1.09625 7.18808 18.2
      vertex -1.14127 7.07082 0
      vertex -1.14127 7.07082 18.2
    endloop
  endfacet
  facet normal -0.987688 0.156437 0
    outer loop
      vertex -1.19343 6.82543 0
      vertex -1.17378 6.94949 18.2
      vertex -1.17378 6.94949 0
    endloop
  endfacet
  facet normal -0.987688 0.156437 0
    outer loop
      vertex -1.17378 6.94949 18.2
      vertex -1.19343 6.82543 0
      vertex -1.19343 6.82543 18.2
    endloop
  endfacet
  facet normal 0.358368 0.93358 -0
    outer loop
      vertex 40.4881 7.79625 0
      vertex 40.3708 7.84127 18.2
      vertex 40.4881 7.79625 18.2
    endloop
  endfacet
  facet normal 0.358368 0.93358 0
    outer loop
      vertex 40.3708 7.84127 18.2
      vertex 40.4881 7.79625 0
      vertex 40.3708 7.84127 0
    endloop
  endfacet
  facet normal 0.93358 0.358368 0
    outer loop
      vertex 41.1413 7.07082 18.2
      vertex 41.0963 7.18808 0
      vertex 41.0963 7.18808 18.2
    endloop
  endfacet
  facet normal 0.93358 0.358368 0
    outer loop
      vertex 41.0963 7.18808 0
      vertex 41.1413 7.07082 18.2
      vertex 41.1413 7.07082 0
    endloop
  endfacet
  facet normal 0.838662 -0.544652 0
    outer loop
      vertex 40.9708 -0.705342 18.2
      vertex 41.0392 -0.599999 0
      vertex 41.0392 -0.599999 18.2
    endloop
  endfacet
  facet normal 0.838662 -0.544652 0
    outer loop
      vertex 41.0392 -0.599999 0
      vertex 40.9708 -0.705342 18.2
      vertex 40.9708 -0.705342 0
    endloop
  endfacet
  facet normal 0.629319 -0.777147 0
    outer loop
      vertex 40.7053 -0.970819 0
      vertex 40.803 -0.891773 18.2
      vertex 40.7053 -0.970819 18.2
    endloop
  endfacet
  facet normal 0.629319 -0.777147 0
    outer loop
      vertex 40.803 -0.891773 18.2
      vertex 40.7053 -0.970819 0
      vertex 40.803 -0.891773 0
    endloop
  endfacet
  facet normal -0.544641 -0.838669 0
    outer loop
      vertex -0.705342 -0.970819 0
      vertex -0.599999 -1.03923 18.2
      vertex -0.705342 -0.970819 18.2
    endloop
  endfacet
  facet normal -0.544641 -0.838669 -0
    outer loop
      vertex -0.599999 -1.03923 18.2
      vertex -0.705342 -0.970819 0
      vertex -0.599999 -1.03923 0
    endloop
  endfacet
  facet normal -0.156437 -0.987688 0
    outer loop
      vertex -0.249494 -1.17378 0
      vertex -0.125434 -1.19343 18.2
      vertex -0.249494 -1.17378 18.2
    endloop
  endfacet
  facet normal -0.156437 -0.987688 -0
    outer loop
      vertex -0.125434 -1.19343 18.2
      vertex -0.249494 -1.17378 0
      vertex -0.125434 -1.19343 0
    endloop
  endfacet
  facet normal -0.838669 -0.544641 0
    outer loop
      vertex -0.970819 -0.705342 0
      vertex -1.03923 -0.599999 18.2
      vertex -1.03923 -0.599999 0
    endloop
  endfacet
  facet normal -0.838669 -0.544641 0
    outer loop
      vertex -1.03923 -0.599999 18.2
      vertex -0.970819 -0.705342 0
      vertex -0.970819 -0.705342 18.2
    endloop
  endfacet
  facet normal -0.965927 -0.258816 0
    outer loop
      vertex -1.14127 -0.37082 0
      vertex -1.17378 -0.249494 18.2
      vertex -1.17378 -0.249494 0
    endloop
  endfacet
  facet normal -0.965927 -0.258816 0
    outer loop
      vertex -1.17378 -0.249494 18.2
      vertex -1.14127 -0.37082 0
      vertex -1.14127 -0.37082 18.2
    endloop
  endfacet
  facet normal -0.987688 -0.156437 0
    outer loop
      vertex -1.17378 -0.249494 0
      vertex -1.19343 -0.125434 18.2
      vertex -1.19343 -0.125434 0
    endloop
  endfacet
  facet normal -0.987688 -0.156437 0
    outer loop
      vertex -1.19343 -0.125434 18.2
      vertex -1.17378 -0.249494 0
      vertex -1.17378 -0.249494 18.2
    endloop
  endfacet
  facet normal -0.629324 0.777143 0
    outer loop
      vertex -0.705342 7.67082 0
      vertex -0.802957 7.59177 18.2
      vertex -0.705342 7.67082 18.2
    endloop
  endfacet
  facet normal -0.629324 0.777143 0
    outer loop
      vertex -0.802957 7.59177 18.2
      vertex -0.705342 7.67082 0
      vertex -0.802957 7.59177 0
    endloop
  endfacet
  facet normal -0.358368 0.93358 0
    outer loop
      vertex -0.37082 7.84127 0
      vertex -0.488084 7.79625 18.2
      vertex -0.37082 7.84127 18.2
    endloop
  endfacet
  facet normal -0.358368 0.93358 0
    outer loop
      vertex -0.488084 7.79625 18.2
      vertex -0.37082 7.84127 0
      vertex -0.488084 7.79625 0
    endloop
  endfacet
  facet normal -0.838669 0.544641 0
    outer loop
      vertex -1.03923 7.3 0
      vertex -0.970819 7.40534 18.2
      vertex -0.970819 7.40534 0
    endloop
  endfacet
  facet normal -0.838669 0.544641 0
    outer loop
      vertex -0.970819 7.40534 18.2
      vertex -1.03923 7.3 0
      vertex -1.03923 7.3 18.2
    endloop
  endfacet
  facet normal -0.777147 0.629319 0
    outer loop
      vertex -0.970819 7.40534 0
      vertex -0.891773 7.50296 18.2
      vertex -0.891773 7.50296 0
    endloop
  endfacet
  facet normal -0.777147 0.629319 0
    outer loop
      vertex -0.891773 7.50296 18.2
      vertex -0.970819 7.40534 0
      vertex -0.970819 7.40534 18.2
    endloop
  endfacet
  facet normal -0.965927 0.258816 0
    outer loop
      vertex -1.17378 6.94949 0
      vertex -1.14127 7.07082 18.2
      vertex -1.14127 7.07082 0
    endloop
  endfacet
  facet normal -0.965927 0.258816 0
    outer loop
      vertex -1.14127 7.07082 18.2
      vertex -1.17378 6.94949 0
      vertex -1.17378 6.94949 18.2
    endloop
  endfacet
  facet normal 0.15644 0.987687 -0
    outer loop
      vertex 40.2495 7.87378 0
      vertex 40.1254 7.89343 18.2
      vertex 40.2495 7.87378 18.2
    endloop
  endfacet
  facet normal 0.15644 0.987687 0
    outer loop
      vertex 40.1254 7.89343 18.2
      vertex 40.2495 7.87378 0
      vertex 40.1254 7.89343 0
    endloop
  endfacet
  facet normal 0.258816 0.965927 -0
    outer loop
      vertex 40.3708 7.84127 0
      vertex 40.2495 7.87378 18.2
      vertex 40.3708 7.84127 18.2
    endloop
  endfacet
  facet normal 0.258816 0.965927 0
    outer loop
      vertex 40.2495 7.87378 18.2
      vertex 40.3708 7.84127 0
      vertex 40.2495 7.87378 0
    endloop
  endfacet
  facet normal 0.544636 0.838673 -0
    outer loop
      vertex 40.7053 7.67082 0
      vertex 40.6 7.73923 18.2
      vertex 40.7053 7.67082 18.2
    endloop
  endfacet
  facet normal 0.544636 0.838673 0
    outer loop
      vertex 40.6 7.73923 18.2
      vertex 40.7053 7.67082 0
      vertex 40.6 7.73923 0
    endloop
  endfacet
  facet normal 0.629324 0.777143 -0
    outer loop
      vertex 40.803 7.59177 0
      vertex 40.7053 7.67082 18.2
      vertex 40.803 7.59177 18.2
    endloop
  endfacet
  facet normal 0.629324 0.777143 0
    outer loop
      vertex 40.7053 7.67082 18.2
      vertex 40.803 7.59177 0
      vertex 40.7053 7.67082 0
    endloop
  endfacet
  facet normal 0.453992 0.891006 -0
    outer loop
      vertex 40.6 7.73923 0
      vertex 40.4881 7.79625 18.2
      vertex 40.6 7.73923 18.2
    endloop
  endfacet
  facet normal 0.453992 0.891006 0
    outer loop
      vertex 40.4881 7.79625 18.2
      vertex 40.6 7.73923 0
      vertex 40.4881 7.79625 0
    endloop
  endfacet
  facet normal 0.777154 0.62931 0
    outer loop
      vertex 40.9708 7.40534 18.2
      vertex 40.8918 7.50296 0
      vertex 40.8918 7.50296 18.2
    endloop
  endfacet
  facet normal 0.777154 0.62931 0
    outer loop
      vertex 40.8918 7.50296 0
      vertex 40.9708 7.40534 18.2
      vertex 40.9708 7.40534 0
    endloop
  endfacet
  facet normal 0.838662 0.544652 0
    outer loop
      vertex 41.0392 7.3 18.2
      vertex 40.9708 7.40534 0
      vertex 40.9708 7.40534 18.2
    endloop
  endfacet
  facet normal 0.838662 0.544652 0
    outer loop
      vertex 40.9708 7.40534 0
      vertex 41.0392 7.3 18.2
      vertex 41.0392 7.3 0
    endloop
  endfacet
  facet normal 0.891012 0.453979 0
    outer loop
      vertex 41.0963 7.18808 18.2
      vertex 41.0392 7.3 0
      vertex 41.0392 7.3 18.2
    endloop
  endfacet
  facet normal 0.891012 0.453979 0
    outer loop
      vertex 41.0392 7.3 0
      vertex 41.0963 7.18808 18.2
      vertex 41.0963 7.18808 0
    endloop
  endfacet
  facet normal 0.965927 0.258816 0
    outer loop
      vertex 41.1738 6.94949 18.2
      vertex 41.1413 7.07082 0
      vertex 41.1413 7.07082 18.2
    endloop
  endfacet
  facet normal 0.965927 0.258816 0
    outer loop
      vertex 41.1413 7.07082 0
      vertex 41.1738 6.94949 18.2
      vertex 41.1738 6.94949 0
    endloop
  endfacet
  facet normal 0.987683 0.156467 0
    outer loop
      vertex 41.1934 6.82543 18.2
      vertex 41.1738 6.94949 0
      vertex 41.1738 6.94949 18.2
    endloop
  endfacet
  facet normal 0.987683 0.156467 0
    outer loop
      vertex 41.1738 6.94949 0
      vertex 41.1934 6.82543 18.2
      vertex 41.1934 6.82543 0
    endloop
  endfacet
  facet normal 0.99863 0.0523281 -0
    outer loop
      vertex 41.2 6.7 3
      vertex 41.1934 6.82543 18.2
      vertex 41.2 6.7 18.2
    endloop
  endfacet
  facet normal 0.99863 0.0523281 0
    outer loop
      vertex 41.1934 6.82543 18.2
      vertex 41.2 6.7 3
      vertex 41.1934 6.82543 0
    endloop
  endfacet
  facet normal 0.99863 0.0523281 0
    outer loop
      vertex 41.1934 6.82543 0
      vertex 41.2 6.7 3
      vertex 41.2 6.7 0
    endloop
  endfacet
  facet normal -0.99863 0.0523357 0
    outer loop
      vertex -1.2 0 3
      vertex -1.19343 0.125434 18.2
      vertex -1.19343 0.125434 3
    endloop
  endfacet
  facet normal -0.99863 0.0523357 0
    outer loop
      vertex -1.19343 0.125434 18.2
      vertex -1.2 0 3
      vertex -1.2 0 18.2
    endloop
  endfacet
  facet normal 0.99863 0.0523281 0
    outer loop
      vertex 41.2 0 18.2
      vertex 41.1934 0.125434 3
      vertex 41.1934 0.125434 18.2
    endloop
  endfacet
  facet normal 0.99863 0.0523281 0
    outer loop
      vertex 41.1934 0.125434 3
      vertex 41.2 0 18.2
      vertex 41.2 0 3
    endloop
  endfacet
  facet normal 0 1 -0
    outer loop
      vertex 40 1.2 3
      vertex 0 1.2 18.2
      vertex 40 1.2 18.2
    endloop
  endfacet
  facet normal 0 1 0
    outer loop
      vertex 0 1.2 18.2
      vertex 40 1.2 3
      vertex 0 1.2 3
    endloop
  endfacet
  facet normal 0.0523353 0.99863 -0
    outer loop
      vertex 40.1254 1.19343 3
      vertex 40 1.2 18.2
      vertex 40.1254 1.19343 18.2
    endloop
  endfacet
  facet normal 0.0523353 0.99863 0
    outer loop
      vertex 40 1.2 18.2
      vertex 40.1254 1.19343 3
      vertex 40 1.2 3
    endloop
  endfacet
  facet normal 0 0 1
    outer loop
      vertex 41.1934 0.125434 18.2
      vertex 41.1934 -0.125434 18.2
      vertex 41.2 0 18.2
    endloop
  endfacet
  facet normal 0 0 1
    outer loop
      vertex 41.1738 0.249494 18.2
      vertex 41.1934 -0.125434 18.2
      vertex 41.1934 0.125434 18.2
    endloop
  endfacet
  facet normal 0 0 1
    outer loop
      vertex 41.1738 0.249494 18.2
      vertex 41.1738 -0.249494 18.2
      vertex 41.1934 -0.125434 18.2
    endloop
  endfacet
  facet normal 0 0 1
    outer loop
      vertex 41.1413 0.37082 18.2
      vertex 41.1738 -0.249494 18.2
      vertex 41.1738 0.249494 18.2
    endloop
  endfacet
  facet normal 0 0 1
    outer loop
      vertex 41.1413 0.37082 18.2
      vertex 41.1413 -0.37082 18.2
      vertex 41.1738 -0.249494 18.2
    endloop
  endfacet
  facet normal 0 0 1
    outer loop
      vertex 41.0963 0.488084 18.2
      vertex 41.1413 -0.37082 18.2
      vertex 41.1413 0.37082 18.2
    endloop
  endfacet
  facet normal 0 0 1
    outer loop
      vertex 41.0963 0.488084 18.2
      vertex 41.0963 -0.488084 18.2
      vertex 41.1413 -0.37082 18.2
    endloop
  endfacet
  facet normal 0 0 1
    outer loop
      vertex 41.0392 0.599999 18.2
      vertex 41.0963 -0.488084 18.2
      vertex 41.0963 0.488084 18.2
    endloop
  endfacet
  facet normal 0 0 1
    outer loop
      vertex 41.0392 0.599999 18.2
      vertex 41.0392 -0.599999 18.2
      vertex 41.0963 -0.488084 18.2
    endloop
  endfacet
  facet normal 0 0 1
    outer loop
      vertex 40.9708 0.705342 18.2
      vertex 41.0392 -0.599999 18.2
      vertex 41.0392 0.599999 18.2
    endloop
  endfacet
  facet normal 0 0 1
    outer loop
      vertex 40.9708 0.705342 18.2
      vertex 40.9708 -0.705342 18.2
      vertex 41.0392 -0.599999 18.2
    endloop
  endfacet
  facet normal 0 0 1
    outer loop
      vertex 40.8918 0.802957 18.2
      vertex 40.9708 -0.705342 18.2
      vertex 40.9708 0.705342 18.2
    endloop
  endfacet
  facet normal 0 0 1
    outer loop
      vertex 40.8918 0.802957 18.2
      vertex 40.8918 -0.802957 18.2
      vertex 40.9708 -0.705342 18.2
    endloop
  endfacet
  facet normal 0 0 1
    outer loop
      vertex 40.803 0.891773 18.2
      vertex 40.8918 -0.802957 18.2
      vertex 40.8918 0.802957 18.2
    endloop
  endfacet
  facet normal 0 0 1
    outer loop
      vertex 40.803 0.891773 18.2
      vertex 40.803 -0.891773 18.2
      vertex 40.8918 -0.802957 18.2
    endloop
  endfacet
  facet normal 0 0 1
    outer loop
      vertex 40.7053 0.970819 18.2
      vertex 40.803 -0.891773 18.2
      vertex 40.803 0.891773 18.2
    endloop
  endfacet
  facet normal 0 0 1
    outer loop
      vertex 40.7053 0.970819 18.2
      vertex 40.7053 -0.970819 18.2
      vertex 40.803 -0.891773 18.2
    endloop
  endfacet
  facet normal 0 0 1
    outer loop
      vertex 40.6 1.03923 18.2
      vertex 40.7053 -0.970819 18.2
      vertex 40.7053 0.970819 18.2
    endloop
  endfacet
  facet normal 0 0 1
    outer loop
      vertex 40.6 1.03923 18.2
      vertex 40.6 -1.03923 18.2
      vertex 40.7053 -0.970819 18.2
    endloop
  endfacet
  facet normal 0 0 1
    outer loop
      vertex 40.4881 1.09625 18.2
      vertex 40.6 -1.03923 18.2
      vertex 40.6 1.03923 18.2
    endloop
  endfacet
  facet normal 0 0 1
    outer loop
      vertex 40.4881 1.09625 18.2
      vertex 40.4881 -1.09625 18.2
      vertex 40.6 -1.03923 18.2
    endloop
  endfacet
  facet normal 0 0 1
    outer loop
      vertex 40.3708 1.14127 18.2
      vertex 40.4881 -1.09625 18.2
      vertex 40.4881 1.09625 18.2
    endloop
  endfacet
  facet normal 0 0 1
    outer loop
      vertex 40.3708 1.14127 18.2
      vertex 40.3708 -1.14127 18.2
      vertex 40.4881 -1.09625 18.2
    endloop
  endfacet
  facet normal 0 0 1
    outer loop
      vertex 40.2495 1.17378 18.2
      vertex 40.3708 -1.14127 18.2
      vertex 40.3708 1.14127 18.2
    endloop
  endfacet
  facet normal 0 0 1
    outer loop
      vertex 40.2495 1.17378 18.2
      vertex 40.2495 -1.17378 18.2
      vertex 40.3708 -1.14127 18.2
    endloop
  endfacet
  facet normal 0 0 1
    outer loop
      vertex 40.1254 1.19343 18.2
      vertex 40.2495 -1.17378 18.2
      vertex 40.2495 1.17378 18.2
    endloop
  endfacet
  facet normal 0 0 1
    outer loop
      vertex 40.1254 1.19343 18.2
      vertex 40.1254 -1.19343 18.2
      vertex 40.2495 -1.17378 18.2
    endloop
  endfacet
  facet normal 0 0 1
    outer loop
      vertex 40 1.2 18.2
      vertex 40.1254 -1.19343 18.2
      vertex 40.1254 1.19343 18.2
    endloop
  endfacet
  facet normal 0 0 1
    outer loop
      vertex 40 1.2 18.2
      vertex 40 -1.2 18.2
      vertex 40.1254 -1.19343 18.2
    endloop
  endfacet
  facet normal -0 0 1
    outer loop
      vertex 0 1.2 18.2
      vertex 40 -1.2 18.2
      vertex 40 1.2 18.2
    endloop
  endfacet
  facet normal 0 0 1
    outer loop
      vertex 0 1.2 18.2
      vertex 0 -1.2 18.2
      vertex 40 -1.2 18.2
    endloop
  endfacet
  facet normal -0 0 1
    outer loop
      vertex -0.125434 1.19343 18.2
      vertex 0 -1.2 18.2
      vertex 0 1.2 18.2
    endloop
  endfacet
  facet normal 0 0 1
    outer loop
      vertex -0.125434 1.19343 18.2
      vertex -0.125434 -1.19343 18.2
      vertex 0 -1.2 18.2
    endloop
  endfacet
  facet normal -0 0 1
    outer loop
      vertex -0.249494 1.17378 18.2
      vertex -0.125434 -1.19343 18.2
      vertex -0.125434 1.19343 18.2
    endloop
  endfacet
  facet normal 0 0 1
    outer loop
      vertex -0.249494 1.17378 18.2
      vertex -0.249494 -1.17378 18.2
      vertex -0.125434 -1.19343 18.2
    endloop
  endfacet
  facet normal -0 0 1
    outer loop
      vertex -0.37082 1.14127 18.2
      vertex -0.249494 -1.17378 18.2
      vertex -0.249494 1.17378 18.2
    endloop
  endfacet
  facet normal 0 0 1
    outer loop
      vertex -0.37082 1.14127 18.2
      vertex -0.37082 -1.14127 18.2
      vertex -0.249494 -1.17378 18.2
    endloop
  endfacet
  facet normal -0 0 1
    outer loop
      vertex -0.488084 1.09625 18.2
      vertex -0.37082 -1.14127 18.2
      vertex -0.37082 1.14127 18.2
    endloop
  endfacet
  facet normal 0 0 1
    outer loop
      vertex -0.488084 1.09625 18.2
      vertex -0.488084 -1.09625 18.2
      vertex -0.37082 -1.14127 18.2
    endloop
  endfacet
  facet normal -0 0 1
    outer loop
      vertex -0.599999 1.03923 18.2
      vertex -0.488084 -1.09625 18.2
      vertex -0.488084 1.09625 18.2
    endloop
  endfacet
  facet normal 0 0 1
    outer loop
      vertex -0.599999 1.03923 18.2
      vertex -0.599999 -1.03923 18.2
      vertex -0.488084 -1.09625 18.2
    endloop
  endfacet
  facet normal -0 0 1
    outer loop
      vertex -0.705342 0.970819 18.2
      vertex -0.599999 -1.03923 18.2
      vertex -0.599999 1.03923 18.2
    endloop
  endfacet
  facet normal 0 0 1
    outer loop
      vertex -0.705342 0.970819 18.2
      vertex -0.705342 -0.970819 18.2
      vertex -0.599999 -1.03923 18.2
    endloop
  endfacet
  facet normal -0 0 1
    outer loop
      vertex -0.802957 0.891773 18.2
      vertex -0.705342 -0.970819 18.2
      vertex -0.705342 0.970819 18.2
    endloop
  endfacet
  facet normal 0 0 1
    outer loop
      vertex -0.802957 0.891773 18.2
      vertex -0.802957 -0.891773 18.2
      vertex -0.705342 -0.970819 18.2
    endloop
  endfacet
  facet normal -0 0 1
    outer loop
      vertex -0.891773 0.802957 18.2
      vertex -0.802957 -0.891773 18.2
      vertex -0.802957 0.891773 18.2
    endloop
  endfacet
  facet normal 0 0 1
    outer loop
      vertex -0.891773 0.802957 18.2
      vertex -0.891773 -0.802957 18.2
      vertex -0.802957 -0.891773 18.2
    endloop
  endfacet
  facet normal -0 0 1
    outer loop
      vertex -0.970819 0.705342 18.2
      vertex -0.891773 -0.802957 18.2
      vertex -0.891773 0.802957 18.2
    endloop
  endfacet
  facet normal 0 0 1
    outer loop
      vertex -0.970819 0.705342 18.2
      vertex -0.970819 -0.705342 18.2
      vertex -0.891773 -0.802957 18.2
    endloop
  endfacet
  facet normal -0 0 1
    outer loop
      vertex -1.03923 0.599999 18.2
      vertex -0.970819 -0.705342 18.2
      vertex -0.970819 0.705342 18.2
    endloop
  endfacet
  facet normal 0 0 1
    outer loop
      vertex -1.03923 0.599999 18.2
      vertex -1.03923 -0.599999 18.2
      vertex -0.970819 -0.705342 18.2
    endloop
  endfacet
  facet normal -0 0 1
    outer loop
      vertex -1.09625 0.488084 18.2
      vertex -1.03923 -0.599999 18.2
      vertex -1.03923 0.599999 18.2
    endloop
  endfacet
  facet normal 0 0 1
    outer loop
      vertex -1.09625 0.488084 18.2
      vertex -1.09625 -0.488084 18.2
      vertex -1.03923 -0.599999 18.2
    endloop
  endfacet
  facet normal -0 0 1
    outer loop
      vertex -1.14127 0.37082 18.2
      vertex -1.09625 -0.488084 18.2
      vertex -1.09625 0.488084 18.2
    endloop
  endfacet
  facet normal 0 0 1
    outer loop
      vertex -1.14127 0.37082 18.2
      vertex -1.14127 -0.37082 18.2
      vertex -1.09625 -0.488084 18.2
    endloop
  endfacet
  facet normal -0 0 1
    outer loop
      vertex -1.17378 0.249494 18.2
      vertex -1.14127 -0.37082 18.2
      vertex -1.14127 0.37082 18.2
    endloop
  endfacet
  facet normal 0 0 1
    outer loop
      vertex -1.17378 0.249494 18.2
      vertex -1.17378 -0.249494 18.2
      vertex -1.14127 -0.37082 18.2
    endloop
  endfacet
  facet normal -0 0 1
    outer loop
      vertex -1.19343 0.125434 18.2
      vertex -1.17378 -0.249494 18.2
      vertex -1.17378 0.249494 18.2
    endloop
  endfacet
  facet normal 0 0 1
    outer loop
      vertex -1.19343 0.125434 18.2
      vertex -1.19343 -0.125434 18.2
      vertex -1.17378 -0.249494 18.2
    endloop
  endfacet
  facet normal 0 -0 1
    outer loop
      vertex -1.19343 -0.125434 18.2
      vertex -1.19343 0.125434 18.2
      vertex -1.2 0 18.2
    endloop
  endfacet
  facet normal 0.707103 0.707111 -0
    outer loop
      vertex 40.8918 0.802957 3
      vertex 40.803 0.891773 18.2
      vertex 40.8918 0.802957 18.2
    endloop
  endfacet
  facet normal 0.707103 0.707111 0
    outer loop
      vertex 40.803 0.891773 18.2
      vertex 40.8918 0.802957 3
      vertex 40.803 0.891773 3
    endloop
  endfacet
  facet normal -0.156437 0.987688 0
    outer loop
      vertex -0.125434 1.19343 3
      vertex -0.249494 1.17378 18.2
      vertex -0.125434 1.19343 18.2
    endloop
  endfacet
  facet normal -0.156437 0.987688 0
    outer loop
      vertex -0.249494 1.17378 18.2
      vertex -0.125434 1.19343 3
      vertex -0.249494 1.17378 3
    endloop
  endfacet
  facet normal 0.93358 0.358368 0
    outer loop
      vertex 41.1413 0.37082 18.2
      vertex 41.0963 0.488084 3
      vertex 41.0963 0.488084 18.2
    endloop
  endfacet
  facet normal 0.93358 0.358368 0
    outer loop
      vertex 41.0963 0.488084 3
      vertex 41.1413 0.37082 18.2
      vertex 41.1413 0.37082 3
    endloop
  endfacet
  facet normal 0.358368 0.93358 -0
    outer loop
      vertex 40.4881 1.09625 3
      vertex 40.3708 1.14127 18.2
      vertex 40.4881 1.09625 18.2
    endloop
  endfacet
  facet normal 0.358368 0.93358 0
    outer loop
      vertex 40.3708 1.14127 18.2
      vertex 40.4881 1.09625 3
      vertex 40.3708 1.14127 3
    endloop
  endfacet
  facet normal -0.965927 0.258816 0
    outer loop
      vertex -1.17378 0.249494 3
      vertex -1.14127 0.37082 18.2
      vertex -1.14127 0.37082 3
    endloop
  endfacet
  facet normal -0.965927 0.258816 0
    outer loop
      vertex -1.14127 0.37082 18.2
      vertex -1.17378 0.249494 3
      vertex -1.17378 0.249494 18.2
    endloop
  endfacet
  facet normal -0.93358 0.358368 0
    outer loop
      vertex -1.14127 0.37082 3
      vertex -1.09625 0.488084 18.2
      vertex -1.09625 0.488084 3
    endloop
  endfacet
  facet normal -0.93358 0.358368 0
    outer loop
      vertex -1.09625 0.488084 18.2
      vertex -1.14127 0.37082 3
      vertex -1.14127 0.37082 18.2
    endloop
  endfacet
  facet normal -0.358368 0.93358 0
    outer loop
      vertex -0.37082 1.14127 3
      vertex -0.488084 1.09625 18.2
      vertex -0.37082 1.14127 18.2
    endloop
  endfacet
  facet normal -0.358368 0.93358 0
    outer loop
      vertex -0.488084 1.09625 18.2
      vertex -0.37082 1.14127 3
      vertex -0.488084 1.09625 3
    endloop
  endfacet
  facet normal -0.629319 0.777147 0
    outer loop
      vertex -0.705342 0.970819 3
      vertex -0.802957 0.891773 18.2
      vertex -0.705342 0.970819 18.2
    endloop
  endfacet
  facet normal -0.629319 0.777147 0
    outer loop
      vertex -0.802957 0.891773 18.2
      vertex -0.705342 0.970819 3
      vertex -0.802957 0.891773 3
    endloop
  endfacet
  facet normal -0.707107 0.707107 0
    outer loop
      vertex -0.891773 0.802957 3
      vertex -0.802957 0.891773 18.2
      vertex -0.802957 0.891773 3
    endloop
  endfacet
  facet normal -0.707107 0.707107 0
    outer loop
      vertex -0.802957 0.891773 18.2
      vertex -0.891773 0.802957 3
      vertex -0.891773 0.802957 18.2
    endloop
  endfacet
  facet normal 0.987683 0.156467 0
    outer loop
      vertex 41.1934 0.125434 18.2
      vertex 41.1738 0.249494 3
      vertex 41.1738 0.249494 18.2
    endloop
  endfacet
  facet normal 0.987683 0.156467 0
    outer loop
      vertex 41.1738 0.249494 3
      vertex 41.1934 0.125434 18.2
      vertex 41.1934 0.125434 3
    endloop
  endfacet
  facet normal 0.965927 0.258816 0
    outer loop
      vertex 41.1738 0.249494 18.2
      vertex 41.1413 0.37082 3
      vertex 41.1413 0.37082 18.2
    endloop
  endfacet
  facet normal 0.965927 0.258816 0
    outer loop
      vertex 41.1413 0.37082 3
      vertex 41.1738 0.249494 18.2
      vertex 41.1738 0.249494 3
    endloop
  endfacet
  facet normal 0.838662 0.544652 0
    outer loop
      vertex 41.0392 0.599999 18.2
      vertex 40.9708 0.705342 3
      vertex 40.9708 0.705342 18.2
    endloop
  endfacet
  facet normal 0.838662 0.544652 0
    outer loop
      vertex 40.9708 0.705342 3
      vertex 41.0392 0.599999 18.2
      vertex 41.0392 0.599999 3
    endloop
  endfacet
  facet normal 0.777154 0.62931 0
    outer loop
      vertex 40.9708 0.705342 18.2
      vertex 40.8918 0.802957 3
      vertex 40.8918 0.802957 18.2
    endloop
  endfacet
  facet normal 0.777154 0.62931 0
    outer loop
      vertex 40.8918 0.802957 3
      vertex 40.9708 0.705342 18.2
      vertex 40.9708 0.705342 3
    endloop
  endfacet
  facet normal 0.891012 0.453979 0
    outer loop
      vertex 41.0963 0.488084 18.2
      vertex 41.0392 0.599999 3
      vertex 41.0392 0.599999 18.2
    endloop
  endfacet
  facet normal 0.891012 0.453979 0
    outer loop
      vertex 41.0392 0.599999 3
      vertex 41.0963 0.488084 18.2
      vertex 41.0963 0.488084 3
    endloop
  endfacet
  facet normal 0.544641 0.838669 -0
    outer loop
      vertex 40.7053 0.970819 3
      vertex 40.6 1.03923 18.2
      vertex 40.7053 0.970819 18.2
    endloop
  endfacet
  facet normal 0.544641 0.838669 0
    outer loop
      vertex 40.6 1.03923 18.2
      vertex 40.7053 0.970819 3
      vertex 40.6 1.03923 3
    endloop
  endfacet
  facet normal 0.629319 0.777147 -0
    outer loop
      vertex 40.803 0.891773 3
      vertex 40.7053 0.970819 18.2
      vertex 40.803 0.891773 18.2
    endloop
  endfacet
  facet normal 0.629319 0.777147 0
    outer loop
      vertex 40.7053 0.970819 18.2
      vertex 40.803 0.891773 3
      vertex 40.7053 0.970819 3
    endloop
  endfacet
  facet normal 0.453992 0.891006 -0
    outer loop
      vertex 40.6 1.03923 3
      vertex 40.4881 1.09625 18.2
      vertex 40.6 1.03923 18.2
    endloop
  endfacet
  facet normal 0.453992 0.891006 0
    outer loop
      vertex 40.4881 1.09625 18.2
      vertex 40.6 1.03923 3
      vertex 40.4881 1.09625 3
    endloop
  endfacet
  facet normal 0.258816 0.965927 -0
    outer loop
      vertex 40.3708 1.14127 3
      vertex 40.2495 1.17378 18.2
      vertex 40.3708 1.14127 18.2
    endloop
  endfacet
  facet normal 0.258816 0.965927 0
    outer loop
      vertex 40.2495 1.17378 18.2
      vertex 40.3708 1.14127 3
      vertex 40.2495 1.17378 3
    endloop
  endfacet
  facet normal 0.15644 0.987687 -0
    outer loop
      vertex 40.2495 1.17378 3
      vertex 40.1254 1.19343 18.2
      vertex 40.2495 1.17378 18.2
    endloop
  endfacet
  facet normal 0.15644 0.987687 0
    outer loop
      vertex 40.1254 1.19343 18.2
      vertex 40.2495 1.17378 3
      vertex 40.1254 1.19343 3
    endloop
  endfacet
  facet normal -0.987688 0.156437 0
    outer loop
      vertex -1.19343 0.125434 3
      vertex -1.17378 0.249494 18.2
      vertex -1.17378 0.249494 3
    endloop
  endfacet
  facet normal -0.987688 0.156437 0
    outer loop
      vertex -1.17378 0.249494 18.2
      vertex -1.19343 0.125434 3
      vertex -1.19343 0.125434 18.2
    endloop
  endfacet
  facet normal -0.891006 0.453992 0
    outer loop
      vertex -1.09625 0.488084 3
      vertex -1.03923 0.599999 18.2
      vertex -1.03923 0.599999 3
    endloop
  endfacet
  facet normal -0.891006 0.453992 0
    outer loop
      vertex -1.03923 0.599999 18.2
      vertex -1.09625 0.488084 3
      vertex -1.09625 0.488084 18.2
    endloop
  endfacet
  facet normal -0.0523357 0.99863 0
    outer loop
      vertex 0 1.2 3
      vertex -0.125434 1.19343 18.2
      vertex 0 1.2 18.2
    endloop
  endfacet
  facet normal -0.0523357 0.99863 0
    outer loop
      vertex -0.125434 1.19343 18.2
      vertex 0 1.2 3
      vertex -0.125434 1.19343 3
    endloop
  endfacet
  facet normal -0.838669 0.544641 0
    outer loop
      vertex -1.03923 0.599999 3
      vertex -0.970819 0.705342 18.2
      vertex -0.970819 0.705342 3
    endloop
  endfacet
  facet normal -0.838669 0.544641 0
    outer loop
      vertex -0.970819 0.705342 18.2
      vertex -1.03923 0.599999 3
      vertex -1.03923 0.599999 18.2
    endloop
  endfacet
  facet normal -0.777147 0.629319 0
    outer loop
      vertex -0.970819 0.705342 3
      vertex -0.891773 0.802957 18.2
      vertex -0.891773 0.802957 3
    endloop
  endfacet
  facet normal -0.777147 0.629319 0
    outer loop
      vertex -0.891773 0.802957 18.2
      vertex -0.970819 0.705342 3
      vertex -0.970819 0.705342 18.2
    endloop
  endfacet
  facet normal -0.544641 0.838669 0
    outer loop
      vertex -0.599999 1.03923 3
      vertex -0.705342 0.970819 18.2
      vertex -0.599999 1.03923 18.2
    endloop
  endfacet
  facet normal -0.544641 0.838669 0
    outer loop
      vertex -0.705342 0.970819 18.2
      vertex -0.599999 1.03923 3
      vertex -0.705342 0.970819 3
    endloop
  endfacet
  facet normal -0.258816 0.965927 0
    outer loop
      vertex -0.249494 1.17378 3
      vertex -0.37082 1.14127 18.2
      vertex -0.249494 1.17378 18.2
    endloop
  endfacet
  facet normal -0.258816 0.965927 0
    outer loop
      vertex -0.37082 1.14127 18.2
      vertex -0.249494 1.17378 3
      vertex -0.37082 1.14127 3
    endloop
  endfacet
  facet normal -0.453992 0.891006 0
    outer loop
      vertex -0.488084 1.09625 3
      vertex -0.599999 1.03923 18.2
      vertex -0.488084 1.09625 18.2
    endloop
  endfacet
  facet normal -0.453992 0.891006 0
    outer loop
      vertex -0.599999 1.03923 18.2
      vertex -0.488084 1.09625 3
      vertex -0.599999 1.03923 3
    endloop
  endfacet
  facet normal 0 -1 0
    outer loop
      vertex 0 5.5 3
      vertex 40 5.5 18.2
      vertex 0 5.5 18.2
    endloop
  endfacet
  facet normal 0 -1 -0
    outer loop
      vertex 40 5.5 18.2
      vertex 0 5.5 3
      vertex 40 5.5 3
    endloop
  endfacet
  facet normal -0.629319 -0.777147 0
    outer loop
      vertex -0.802957 5.80823 3
      vertex -0.705342 5.72918 18.2
      vertex -0.802957 5.80823 18.2
    endloop
  endfacet
  facet normal -0.629319 -0.777147 -0
    outer loop
      vertex -0.705342 5.72918 18.2
      vertex -0.802957 5.80823 3
      vertex -0.705342 5.72918 3
    endloop
  endfacet
  facet normal 0.933579 -0.358371 0
    outer loop
      vertex 41.0963 6.21192 18.2
      vertex 41.1413 6.32918 3
      vertex 41.1413 6.32918 18.2
    endloop
  endfacet
  facet normal 0.933579 -0.358371 0
    outer loop
      vertex 41.1413 6.32918 3
      vertex 41.0963 6.21192 18.2
      vertex 41.0963 6.21192 3
    endloop
  endfacet
  facet normal 0.453998 -0.891003 0
    outer loop
      vertex 40.4881 5.60374 3
      vertex 40.6 5.66077 18.2
      vertex 40.4881 5.60374 18.2
    endloop
  endfacet
  facet normal 0.453998 -0.891003 0
    outer loop
      vertex 40.6 5.66077 18.2
      vertex 40.4881 5.60374 3
      vertex 40.6 5.66077 3
    endloop
  endfacet
  facet normal -0.99863 -0.0523353 0
    outer loop
      vertex -1.19343 6.57456 3
      vertex -1.2 6.7 18.2
      vertex -1.2 6.7 3
    endloop
  endfacet
  facet normal -0.99863 -0.0523353 0
    outer loop
      vertex -1.2 6.7 18.2
      vertex -1.19343 6.57456 3
      vertex -1.19343 6.57456 18.2
    endloop
  endfacet
  facet normal 0 0 1
    outer loop
      vertex 41.1934 6.82543 18.2
      vertex 41.1934 6.57456 18.2
      vertex 41.2 6.7 18.2
    endloop
  endfacet
  facet normal 0 0 1
    outer loop
      vertex 41.1738 6.94949 18.2
      vertex 41.1934 6.57456 18.2
      vertex 41.1934 6.82543 18.2
    endloop
  endfacet
  facet normal 0 0 1
    outer loop
      vertex 41.1738 6.94949 18.2
      vertex 41.1738 6.45051 18.2
      vertex 41.1934 6.57456 18.2
    endloop
  endfacet
  facet normal 0 0 1
    outer loop
      vertex 41.1413 7.07082 18.2
      vertex 41.1738 6.45051 18.2
      vertex 41.1738 6.94949 18.2
    endloop
  endfacet
  facet normal 0 0 1
    outer loop
      vertex 41.1413 7.07082 18.2
      vertex 41.1413 6.32918 18.2
      vertex 41.1738 6.45051 18.2
    endloop
  endfacet
  facet normal 0 0 1
    outer loop
      vertex 41.0963 7.18808 18.2
      vertex 41.1413 6.32918 18.2
      vertex 41.1413 7.07082 18.2
    endloop
  endfacet
  facet normal 0 0 1
    outer loop
      vertex 41.0963 7.18808 18.2
      vertex 41.0963 6.21192 18.2
      vertex 41.1413 6.32918 18.2
    endloop
  endfacet
  facet normal 0 0 1
    outer loop
      vertex 41.0392 7.3 18.2
      vertex 41.0963 6.21192 18.2
      vertex 41.0963 7.18808 18.2
    endloop
  endfacet
  facet normal 0 0 1
    outer loop
      vertex 41.0392 7.3 18.2
      vertex 41.0392 6.1 18.2
      vertex 41.0963 6.21192 18.2
    endloop
  endfacet
  facet normal 0 0 1
    outer loop
      vertex 40.9708 7.40534 18.2
      vertex 41.0392 6.1 18.2
      vertex 41.0392 7.3 18.2
    endloop
  endfacet
  facet normal 0 0 1
    outer loop
      vertex 40.9708 7.40534 18.2
      vertex 40.9708 5.99466 18.2
      vertex 41.0392 6.1 18.2
    endloop
  endfacet
  facet normal 0 0 1
    outer loop
      vertex 40.8918 7.50296 18.2
      vertex 40.9708 5.99466 18.2
      vertex 40.9708 7.40534 18.2
    endloop
  endfacet
  facet normal 0 0 1
    outer loop
      vertex 40.8918 7.50296 18.2
      vertex 40.8918 5.89704 18.2
      vertex 40.9708 5.99466 18.2
    endloop
  endfacet
  facet normal 0 0 1
    outer loop
      vertex 40.803 7.59177 18.2
      vertex 40.8918 5.89704 18.2
      vertex 40.8918 7.50296 18.2
    endloop
  endfacet
  facet normal 0 0 1
    outer loop
      vertex 40.803 7.59177 18.2
      vertex 40.803 5.80823 18.2
      vertex 40.8918 5.89704 18.2
    endloop
  endfacet
  facet normal 0 0 1
    outer loop
      vertex 40.7053 7.67082 18.2
      vertex 40.803 5.80823 18.2
      vertex 40.803 7.59177 18.2
    endloop
  endfacet
  facet normal 0 0 1
    outer loop
      vertex 40.7053 7.67082 18.2
      vertex 40.7053 5.72918 18.2
      vertex 40.803 5.80823 18.2
    endloop
  endfacet
  facet normal 0 0 1
    outer loop
      vertex 40.6 7.73923 18.2
      vertex 40.7053 5.72918 18.2
      vertex 40.7053 7.67082 18.2
    endloop
  endfacet
  facet normal 0 0 1
    outer loop
      vertex 40.6 7.73923 18.2
      vertex 40.6 5.66077 18.2
      vertex 40.7053 5.72918 18.2
    endloop
  endfacet
  facet normal 0 0 1
    outer loop
      vertex 40.4881 7.79625 18.2
      vertex 40.6 5.66077 18.2
      vertex 40.6 7.73923 18.2
    endloop
  endfacet
  facet normal 0 0 1
    outer loop
      vertex 40.4881 7.79625 18.2
      vertex 40.4881 5.60374 18.2
      vertex 40.6 5.66077 18.2
    endloop
  endfacet
  facet normal 0 0 1
    outer loop
      vertex 40.3708 7.84127 18.2
      vertex 40.4881 5.60374 18.2
      vertex 40.4881 7.79625 18.2
    endloop
  endfacet
  facet normal 0 0 1
    outer loop
      vertex 40.3708 7.84127 18.2
      vertex 40.3708 5.55873 18.2
      vertex 40.4881 5.60374 18.2
    endloop
  endfacet
  facet normal 0 0 1
    outer loop
      vertex 40.2495 7.87378 18.2
      vertex 40.3708 5.55873 18.2
      vertex 40.3708 7.84127 18.2
    endloop
  endfacet
  facet normal 0 0 1
    outer loop
      vertex 40.2495 7.87378 18.2
      vertex 40.2495 5.52622 18.2
      vertex 40.3708 5.55873 18.2
    endloop
  endfacet
  facet normal 0 0 1
    outer loop
      vertex 40.1254 7.89343 18.2
      vertex 40.2495 5.52622 18.2
      vertex 40.2495 7.87378 18.2
    endloop
  endfacet
  facet normal 0 0 1
    outer loop
      vertex 40.1254 7.89343 18.2
      vertex 40.1254 5.50657 18.2
      vertex 40.2495 5.52622 18.2
    endloop
  endfacet
  facet normal 0 0 1
    outer loop
      vertex 40 7.9 18.2
      vertex 40.1254 5.50657 18.2
      vertex 40.1254 7.89343 18.2
    endloop
  endfacet
  facet normal 0 0 1
    outer loop
      vertex 40 7.9 18.2
      vertex 40 5.5 18.2
      vertex 40.1254 5.50657 18.2
    endloop
  endfacet
  facet normal -0 0 1
    outer loop
      vertex 0 7.9 18.2
      vertex 40 5.5 18.2
      vertex 40 7.9 18.2
    endloop
  endfacet
  facet normal 0 0 1
    outer loop
      vertex 0 7.9 18.2
      vertex 0 5.5 18.2
      vertex 40 5.5 18.2
    endloop
  endfacet
  facet normal -0 0 1
    outer loop
      vertex -0.125434 7.89343 18.2
      vertex 0 5.5 18.2
      vertex 0 7.9 18.2
    endloop
  endfacet
  facet normal 0 0 1
    outer loop
      vertex -0.125434 7.89343 18.2
      vertex -0.125434 5.50657 18.2
      vertex 0 5.5 18.2
    endloop
  endfacet
  facet normal -0 0 1
    outer loop
      vertex -0.249494 7.87378 18.2
      vertex -0.125434 5.50657 18.2
      vertex -0.125434 7.89343 18.2
    endloop
  endfacet
  facet normal 0 0 1
    outer loop
      vertex -0.249494 7.87378 18.2
      vertex -0.249494 5.52622 18.2
      vertex -0.125434 5.50657 18.2
    endloop
  endfacet
  facet normal -0 0 1
    outer loop
      vertex -0.37082 7.84127 18.2
      vertex -0.249494 5.52622 18.2
      vertex -0.249494 7.87378 18.2
    endloop
  endfacet
  facet normal 0 0 1
    outer loop
      vertex -0.37082 7.84127 18.2
      vertex -0.37082 5.55873 18.2
      vertex -0.249494 5.52622 18.2
    endloop
  endfacet
  facet normal -0 0 1
    outer loop
      vertex -0.488084 7.79625 18.2
      vertex -0.37082 5.55873 18.2
      vertex -0.37082 7.84127 18.2
    endloop
  endfacet
  facet normal 0 0 1
    outer loop
      vertex -0.488084 7.79625 18.2
      vertex -0.488084 5.60374 18.2
      vertex -0.37082 5.55873 18.2
    endloop
  endfacet
  facet normal -0 0 1
    outer loop
      vertex -0.599999 7.73923 18.2
      vertex -0.488084 5.60374 18.2
      vertex -0.488084 7.79625 18.2
    endloop
  endfacet
  facet normal 0 0 1
    outer loop
      vertex -0.599999 7.73923 18.2
      vertex -0.599999 5.66077 18.2
      vertex -0.488084 5.60374 18.2
    endloop
  endfacet
  facet normal -0 0 1
    outer loop
      vertex -0.705342 7.67082 18.2
      vertex -0.599999 5.66077 18.2
      vertex -0.599999 7.73923 18.2
    endloop
  endfacet
  facet normal 0 0 1
    outer loop
      vertex -0.705342 7.67082 18.2
      vertex -0.705342 5.72918 18.2
      vertex -0.599999 5.66077 18.2
    endloop
  endfacet
  facet normal -0 0 1
    outer loop
      vertex -0.802957 7.59177 18.2
      vertex -0.705342 5.72918 18.2
      vertex -0.705342 7.67082 18.2
    endloop
  endfacet
  facet normal 0 0 1
    outer loop
      vertex -0.802957 7.59177 18.2
      vertex -0.802957 5.80823 18.2
      vertex -0.705342 5.72918 18.2
    endloop
  endfacet
  facet normal -0 0 1
    outer loop
      vertex -0.891773 7.50296 18.2
      vertex -0.802957 5.80823 18.2
      vertex -0.802957 7.59177 18.2
    endloop
  endfacet
  facet normal 0 0 1
    outer loop
      vertex -0.891773 7.50296 18.2
      vertex -0.891773 5.89704 18.2
      vertex -0.802957 5.80823 18.2
    endloop
  endfacet
  facet normal -0 0 1
    outer loop
      vertex -0.970819 7.40534 18.2
      vertex -0.891773 5.89704 18.2
      vertex -0.891773 7.50296 18.2
    endloop
  endfacet
  facet normal 0 0 1
    outer loop
      vertex -0.970819 7.40534 18.2
      vertex -0.970819 5.99466 18.2
      vertex -0.891773 5.89704 18.2
    endloop
  endfacet
  facet normal -0 0 1
    outer loop
      vertex -1.03923 7.3 18.2
      vertex -0.970819 5.99466 18.2
      vertex -0.970819 7.40534 18.2
    endloop
  endfacet
  facet normal 0 0 1
    outer loop
      vertex -1.03923 7.3 18.2
      vertex -1.03923 6.1 18.2
      vertex -0.970819 5.99466 18.2
    endloop
  endfacet
  facet normal -0 0 1
    outer loop
      vertex -1.09625 7.18808 18.2
      vertex -1.03923 6.1 18.2
      vertex -1.03923 7.3 18.2
    endloop
  endfacet
  facet normal 0 0 1
    outer loop
      vertex -1.09625 7.18808 18.2
      vertex -1.09625 6.21192 18.2
      vertex -1.03923 6.1 18.2
    endloop
  endfacet
  facet normal -0 0 1
    outer loop
      vertex -1.14127 7.07082 18.2
      vertex -1.09625 6.21192 18.2
      vertex -1.09625 7.18808 18.2
    endloop
  endfacet
  facet normal 0 0 1
    outer loop
      vertex -1.14127 7.07082 18.2
      vertex -1.14127 6.32918 18.2
      vertex -1.09625 6.21192 18.2
    endloop
  endfacet
  facet normal -0 0 1
    outer loop
      vertex -1.17378 6.94949 18.2
      vertex -1.14127 6.32918 18.2
      vertex -1.14127 7.07082 18.2
    endloop
  endfacet
  facet normal 0 0 1
    outer loop
      vertex -1.17378 6.94949 18.2
      vertex -1.17378 6.45051 18.2
      vertex -1.14127 6.32918 18.2
    endloop
  endfacet
  facet normal -0 0 1
    outer loop
      vertex -1.19343 6.82543 18.2
      vertex -1.17378 6.45051 18.2
      vertex -1.17378 6.94949 18.2
    endloop
  endfacet
  facet normal 0 0 1
    outer loop
      vertex -1.19343 6.82543 18.2
      vertex -1.19343 6.57456 18.2
      vertex -1.17378 6.45051 18.2
    endloop
  endfacet
  facet normal 0 -0 1
    outer loop
      vertex -1.19343 6.57456 18.2
      vertex -1.19343 6.82543 18.2
      vertex -1.2 6.7 18.2
    endloop
  endfacet
  facet normal -0.838667 -0.544645 0
    outer loop
      vertex -0.970819 5.99466 3
      vertex -1.03923 6.1 18.2
      vertex -1.03923 6.1 3
    endloop
  endfacet
  facet normal -0.838667 -0.544645 0
    outer loop
      vertex -1.03923 6.1 18.2
      vertex -0.970819 5.99466 3
      vertex -0.970819 5.99466 18.2
    endloop
  endfacet
  facet normal -0.933579 -0.358371 0
    outer loop
      vertex -1.09625 6.21192 3
      vertex -1.14127 6.32918 18.2
      vertex -1.14127 6.32918 3
    endloop
  endfacet
  facet normal -0.933579 -0.358371 0
    outer loop
      vertex -1.14127 6.32918 18.2
      vertex -1.09625 6.21192 3
      vertex -1.09625 6.21192 18.2
    endloop
  endfacet
  facet normal 0.0523428 -0.998629 0
    outer loop
      vertex 40 5.5 3
      vertex 40.1254 5.50657 18.2
      vertex 40 5.5 18.2
    endloop
  endfacet
  facet normal 0.0523428 -0.998629 0
    outer loop
      vertex 40.1254 5.50657 18.2
      vertex 40 5.5 3
      vertex 40.1254 5.50657 3
    endloop
  endfacet
  facet normal 0.258823 -0.965925 0
    outer loop
      vertex 40.2495 5.52622 3
      vertex 40.3708 5.55873 18.2
      vertex 40.2495 5.52622 18.2
    endloop
  endfacet
  facet normal 0.258823 -0.965925 0
    outer loop
      vertex 40.3708 5.55873 18.2
      vertex 40.2495 5.52622 3
      vertex 40.3708 5.55873 3
    endloop
  endfacet
  facet normal 0.629319 -0.777147 0
    outer loop
      vertex 40.7053 5.72918 3
      vertex 40.803 5.80823 18.2
      vertex 40.7053 5.72918 18.2
    endloop
  endfacet
  facet normal 0.629319 -0.777147 0
    outer loop
      vertex 40.803 5.80823 18.2
      vertex 40.7053 5.72918 3
      vertex 40.803 5.80823 3
    endloop
  endfacet
  facet normal 0.987683 -0.156467 0
    outer loop
      vertex 41.1738 6.45051 18.2
      vertex 41.1934 6.57456 3
      vertex 41.1934 6.57456 18.2
    endloop
  endfacet
  facet normal 0.987683 -0.156467 0
    outer loop
      vertex 41.1934 6.57456 3
      vertex 41.1738 6.45051 18.2
      vertex 41.1738 6.45051 3
    endloop
  endfacet
  facet normal 0.83866 -0.544656 0
    outer loop
      vertex 40.9708 5.99466 18.2
      vertex 41.0392 6.1 3
      vertex 41.0392 6.1 18.2
    endloop
  endfacet
  facet normal 0.83866 -0.544656 0
    outer loop
      vertex 41.0392 6.1 3
      vertex 40.9708 5.99466 18.2
      vertex 40.9708 5.99466 3
    endloop
  endfacet
  facet normal 0.707107 -0.707107 0
    outer loop
      vertex 40.803 5.80823 18.2
      vertex 40.8918 5.89704 3
      vertex 40.8918 5.89704 18.2
    endloop
  endfacet
  facet normal 0.707107 -0.707107 0
    outer loop
      vertex 40.8918 5.89704 3
      vertex 40.803 5.80823 18.2
      vertex 40.803 5.80823 3
    endloop
  endfacet
  facet normal 0.777154 -0.62931 0
    outer loop
      vertex 40.8918 5.89704 18.2
      vertex 40.9708 5.99466 3
      vertex 40.9708 5.99466 18.2
    endloop
  endfacet
  facet normal 0.777154 -0.62931 0
    outer loop
      vertex 40.9708 5.99466 3
      vertex 40.8918 5.89704 18.2
      vertex 40.8918 5.89704 3
    endloop
  endfacet
  facet normal -0.987688 -0.156437 0
    outer loop
      vertex -1.17378 6.45051 3
      vertex -1.19343 6.57456 18.2
      vertex -1.19343 6.57456 3
    endloop
  endfacet
  facet normal -0.987688 -0.156437 0
    outer loop
      vertex -1.19343 6.57456 18.2
      vertex -1.17378 6.45051 3
      vertex -1.17378 6.45051 18.2
    endloop
  endfacet
  facet normal -0.891008 -0.453988 0
    outer loop
      vertex -1.03923 6.1 3
      vertex -1.09625 6.21192 18.2
      vertex -1.09625 6.21192 3
    endloop
  endfacet
  facet normal -0.891008 -0.453988 0
    outer loop
      vertex -1.09625 6.21192 18.2
      vertex -1.03923 6.1 3
      vertex -1.03923 6.1 18.2
    endloop
  endfacet
  facet normal -0.707111 -0.707103 0
    outer loop
      vertex -0.802957 5.80823 3
      vertex -0.891773 5.89704 18.2
      vertex -0.891773 5.89704 3
    endloop
  endfacet
  facet normal -0.707111 -0.707103 0
    outer loop
      vertex -0.891773 5.89704 18.2
      vertex -0.802957 5.80823 3
      vertex -0.802957 5.80823 18.2
    endloop
  endfacet
  facet normal -0.15643 -0.987689 0
    outer loop
      vertex -0.249494 5.52622 3
      vertex -0.125434 5.50657 18.2
      vertex -0.249494 5.52622 18.2
    endloop
  endfacet
  facet normal -0.15643 -0.987689 -0
    outer loop
      vertex -0.125434 5.50657 18.2
      vertex -0.249494 5.52622 3
      vertex -0.125434 5.50657 3
    endloop
  endfacet
  facet normal -0.358362 -0.933583 0
    outer loop
      vertex -0.488084 5.60374 3
      vertex -0.37082 5.55873 18.2
      vertex -0.488084 5.60374 18.2
    endloop
  endfacet
  facet normal -0.358362 -0.933583 -0
    outer loop
      vertex -0.37082 5.55873 18.2
      vertex -0.488084 5.60374 3
      vertex -0.37082 5.55873 3
    endloop
  endfacet
  facet normal -0.258823 -0.965925 0
    outer loop
      vertex -0.37082 5.55873 3
      vertex -0.249494 5.52622 18.2
      vertex -0.37082 5.55873 18.2
    endloop
  endfacet
  facet normal -0.258823 -0.965925 -0
    outer loop
      vertex -0.249494 5.52622 18.2
      vertex -0.37082 5.55873 3
      vertex -0.249494 5.52622 3
    endloop
  endfacet
  facet normal 0.156432 -0.987689 0
    outer loop
      vertex 40.1254 5.50657 3
      vertex 40.2495 5.52622 18.2
      vertex 40.1254 5.50657 18.2
    endloop
  endfacet
  facet normal 0.156432 -0.987689 0
    outer loop
      vertex 40.2495 5.52622 18.2
      vertex 40.1254 5.50657 3
      vertex 40.2495 5.52622 3
    endloop
  endfacet
  facet normal 0.358362 -0.933583 0
    outer loop
      vertex 40.3708 5.55873 3
      vertex 40.4881 5.60374 18.2
      vertex 40.3708 5.55873 18.2
    endloop
  endfacet
  facet normal 0.358362 -0.933583 0
    outer loop
      vertex 40.4881 5.60374 18.2
      vertex 40.3708 5.55873 3
      vertex 40.4881 5.60374 3
    endloop
  endfacet
  facet normal 0.544636 -0.838673 0
    outer loop
      vertex 40.6 5.66077 3
      vertex 40.7053 5.72918 18.2
      vertex 40.6 5.66077 18.2
    endloop
  endfacet
  facet normal 0.544636 -0.838673 0
    outer loop
      vertex 40.7053 5.72918 18.2
      vertex 40.6 5.66077 3
      vertex 40.7053 5.72918 3
    endloop
  endfacet
  facet normal 0.965927 -0.258816 0
    outer loop
      vertex 41.1413 6.32918 18.2
      vertex 41.1738 6.45051 3
      vertex 41.1738 6.45051 18.2
    endloop
  endfacet
  facet normal 0.965927 -0.258816 0
    outer loop
      vertex 41.1738 6.45051 3
      vertex 41.1413 6.32918 18.2
      vertex 41.1413 6.32918 3
    endloop
  endfacet
  facet normal 0.99863 -0.0523277 0
    outer loop
      vertex 41.1934 6.57456 18.2
      vertex 41.2 6.7 3
      vertex 41.2 6.7 18.2
    endloop
  endfacet
  facet normal 0.99863 -0.0523277 0
    outer loop
      vertex 41.2 6.7 3
      vertex 41.1934 6.57456 18.2
      vertex 41.1934 6.57456 3
    endloop
  endfacet
  facet normal 0.891014 -0.453976 0
    outer loop
      vertex 41.0392 6.1 18.2
      vertex 41.0963 6.21192 3
      vertex 41.0963 6.21192 18.2
    endloop
  endfacet
  facet normal 0.891014 -0.453976 0
    outer loop
      vertex 41.0963 6.21192 3
      vertex 41.0392 6.1 18.2
      vertex 41.0392 6.1 3
    endloop
  endfacet
  facet normal -0.965927 -0.258816 0
    outer loop
      vertex -1.14127 6.32918 3
      vertex -1.17378 6.45051 18.2
      vertex -1.17378 6.45051 3
    endloop
  endfacet
  facet normal -0.965927 -0.258816 0
    outer loop
      vertex -1.17378 6.45051 18.2
      vertex -1.14127 6.32918 3
      vertex -1.14127 6.32918 18.2
    endloop
  endfacet
  facet normal -0.777147 -0.629319 0
    outer loop
      vertex -0.891773 5.89704 3
      vertex -0.970819 5.99466 18.2
      vertex -0.970819 5.99466 3
    endloop
  endfacet
  facet normal -0.777147 -0.629319 0
    outer loop
      vertex -0.970819 5.99466 18.2
      vertex -0.891773 5.89704 3
      vertex -0.891773 5.89704 18.2
    endloop
  endfacet
  facet normal -0.453998 -0.891003 0
    outer loop
      vertex -0.599999 5.66077 3
      vertex -0.488084 5.60374 18.2
      vertex -0.599999 5.66077 18.2
    endloop
  endfacet
  facet normal -0.453998 -0.891003 -0
    outer loop
      vertex -0.488084 5.60374 18.2
      vertex -0.599999 5.66077 3
      vertex -0.488084 5.60374 3
    endloop
  endfacet
  facet normal -0.544636 -0.838673 0
    outer loop
      vertex -0.705342 5.72918 3
      vertex -0.599999 5.66077 18.2
      vertex -0.705342 5.72918 18.2
    endloop
  endfacet
  facet normal -0.544636 -0.838673 -0
    outer loop
      vertex -0.599999 5.66077 18.2
      vertex -0.705342 5.72918 3
      vertex -0.599999 5.66077 3
    endloop
  endfacet
  facet normal -0.0523432 -0.998629 0
    outer loop
      vertex -0.125434 5.50657 3
      vertex 0 5.5 18.2
      vertex -0.125434 5.50657 18.2
    endloop
  endfacet
  facet normal -0.0523432 -0.998629 -0
    outer loop
      vertex 0 5.5 18.2
      vertex -0.125434 5.50657 3
      vertex 0 5.5 3
    endloop
  endfacet
endsolid OpenSCAD_Model
