solid OpenSCAD_Model
  facet normal 0.99863 0.0523361 0
    outer loop
      vertex 3.55 0 16
      vertex 3.53055 0.371076 0
      vertex 3.53055 0.371076 16
    endloop
  endfacet
  facet normal 0.99863 0.0523361 0
    outer loop
      vertex 3.53055 0.371076 0
      vertex 3.55 0 16
      vertex 3.55 0 0
    endloop
  endfacet
  facet normal 0.987688 0.156434 0
    outer loop
      vertex 3.53055 0.371076 16
      vertex 3.47242 0.738087 0
      vertex 3.47242 0.738087 16
    endloop
  endfacet
  facet normal 0.987688 0.156434 0
    outer loop
      vertex 3.47242 0.738087 0
      vertex 3.53055 0.371076 16
      vertex 3.53055 0.371076 0
    endloop
  endfacet
  facet normal 0.965926 0.258819 0
    outer loop
      vertex 3.47242 0.738087 16
      vertex 3.37625 1.09701 0
      vertex 3.37625 1.09701 16
    endloop
  endfacet
  facet normal 0.965926 0.258819 0
    outer loop
      vertex 3.37625 1.09701 0
      vertex 3.47242 0.738087 16
      vertex 3.47242 0.738087 0
    endloop
  endfacet
  facet normal 0.93358 0.358368 0
    outer loop
      vertex 3.37625 1.09701 16
      vertex 3.24309 1.44392 0
      vertex 3.24309 1.44392 16
    endloop
  endfacet
  facet normal 0.93358 0.358368 0
    outer loop
      vertex 3.24309 1.44392 0
      vertex 3.37625 1.09701 16
      vertex 3.37625 1.09701 0
    endloop
  endfacet
  facet normal 0.891007 0.453991 0
    outer loop
      vertex 3.24309 1.44392 16
      vertex 3.07439 1.775 0
      vertex 3.07439 1.775 16
    endloop
  endfacet
  facet normal 0.891007 0.453991 0
    outer loop
      vertex 3.07439 1.775 0
      vertex 3.24309 1.44392 16
      vertex 3.24309 1.44392 0
    endloop
  endfacet
  facet normal 0.838671 0.544639 0
    outer loop
      vertex 3.07439 1.775 16
      vertex 2.87201 2.08664 0
      vertex 2.87201 2.08664 16
    endloop
  endfacet
  facet normal 0.838671 0.544639 0
    outer loop
      vertex 2.87201 2.08664 0
      vertex 3.07439 1.775 16
      vertex 3.07439 1.775 0
    endloop
  endfacet
  facet normal 0.777146 0.62932 0
    outer loop
      vertex 2.87201 2.08664 16
      vertex 2.63816 2.37541 0
      vertex 2.63816 2.37541 16
    endloop
  endfacet
  facet normal 0.777146 0.62932 0
    outer loop
      vertex 2.63816 2.37541 0
      vertex 2.87201 2.08664 16
      vertex 2.87201 2.08664 0
    endloop
  endfacet
  facet normal 0.707107 0.707107 0
    outer loop
      vertex 2.63816 2.37541 16
      vertex 2.37541 2.63816 0
      vertex 2.37541 2.63816 16
    endloop
  endfacet
  facet normal 0.707107 0.707107 0
    outer loop
      vertex 2.37541 2.63816 0
      vertex 2.63816 2.37541 16
      vertex 2.63816 2.37541 0
    endloop
  endfacet
  facet normal 0.62932 0.777146 -0
    outer loop
      vertex 2.37541 2.63816 0
      vertex 2.08664 2.87201 16
      vertex 2.37541 2.63816 16
    endloop
  endfacet
  facet normal 0.62932 0.777146 0
    outer loop
      vertex 2.08664 2.87201 16
      vertex 2.37541 2.63816 0
      vertex 2.08664 2.87201 0
    endloop
  endfacet
  facet normal 0.544639 0.838671 -0
    outer loop
      vertex 2.08664 2.87201 0
      vertex 1.775 3.07439 16
      vertex 2.08664 2.87201 16
    endloop
  endfacet
  facet normal 0.544639 0.838671 0
    outer loop
      vertex 1.775 3.07439 16
      vertex 2.08664 2.87201 0
      vertex 1.775 3.07439 0
    endloop
  endfacet
  facet normal 0.453991 0.891007 -0
    outer loop
      vertex 1.775 3.07439 0
      vertex 1.44392 3.24309 16
      vertex 1.775 3.07439 16
    endloop
  endfacet
  facet normal 0.453991 0.891007 0
    outer loop
      vertex 1.44392 3.24309 16
      vertex 1.775 3.07439 0
      vertex 1.44392 3.24309 0
    endloop
  endfacet
  facet normal 0.358368 0.93358 -0
    outer loop
      vertex 1.44392 3.24309 0
      vertex 1.09701 3.37625 16
      vertex 1.44392 3.24309 16
    endloop
  endfacet
  facet normal 0.358368 0.93358 0
    outer loop
      vertex 1.09701 3.37625 16
      vertex 1.44392 3.24309 0
      vertex 1.09701 3.37625 0
    endloop
  endfacet
  facet normal 0.258819 0.965926 -0
    outer loop
      vertex 1.09701 3.37625 0
      vertex 0.738087 3.47242 16
      vertex 1.09701 3.37625 16
    endloop
  endfacet
  facet normal 0.258819 0.965926 0
    outer loop
      vertex 0.738087 3.47242 16
      vertex 1.09701 3.37625 0
      vertex 0.738087 3.47242 0
    endloop
  endfacet
  facet normal 0.156434 0.987688 -0
    outer loop
      vertex 0.738087 3.47242 0
      vertex 0.371076 3.53055 16
      vertex 0.738087 3.47242 16
    endloop
  endfacet
  facet normal 0.156434 0.987688 0
    outer loop
      vertex 0.371076 3.53055 16
      vertex 0.738087 3.47242 0
      vertex 0.371076 3.53055 0
    endloop
  endfacet
  facet normal 0.0523361 0.99863 -0
    outer loop
      vertex 0.371076 3.53055 0
      vertex 1.00563e-15 3.55 16
      vertex 0.371076 3.53055 16
    endloop
  endfacet
  facet normal 0.0523361 0.99863 0
    outer loop
      vertex 1.00563e-15 3.55 16
      vertex 0.371076 3.53055 0
      vertex 1.00563e-15 3.55 0
    endloop
  endfacet
  facet normal -0.0523361 0.99863 0
    outer loop
      vertex 1.00563e-15 3.55 0
      vertex -0.371076 3.53055 16
      vertex 1.00563e-15 3.55 16
    endloop
  endfacet
  facet normal -0.0523361 0.99863 0
    outer loop
      vertex -0.371076 3.53055 16
      vertex 1.00563e-15 3.55 0
      vertex -0.371076 3.53055 0
    endloop
  endfacet
  facet normal -0.156434 0.987688 0
    outer loop
      vertex -0.371076 3.53055 0
      vertex -0.738087 3.47242 16
      vertex -0.371076 3.53055 16
    endloop
  endfacet
  facet normal -0.156434 0.987688 0
    outer loop
      vertex -0.738087 3.47242 16
      vertex -0.371076 3.53055 0
      vertex -0.738087 3.47242 0
    endloop
  endfacet
  facet normal -0.258819 0.965926 0
    outer loop
      vertex -0.738087 3.47242 0
      vertex -1.09701 3.37625 16
      vertex -0.738087 3.47242 16
    endloop
  endfacet
  facet normal -0.258819 0.965926 0
    outer loop
      vertex -1.09701 3.37625 16
      vertex -0.738087 3.47242 0
      vertex -1.09701 3.37625 0
    endloop
  endfacet
  facet normal -0.358368 0.93358 0
    outer loop
      vertex -1.09701 3.37625 0
      vertex -1.44392 3.24309 16
      vertex -1.09701 3.37625 16
    endloop
  endfacet
  facet normal -0.358368 0.93358 0
    outer loop
      vertex -1.44392 3.24309 16
      vertex -1.09701 3.37625 0
      vertex -1.44392 3.24309 0
    endloop
  endfacet
  facet normal -0.453991 0.891007 0
    outer loop
      vertex -1.44392 3.24309 0
      vertex -1.775 3.07439 16
      vertex -1.44392 3.24309 16
    endloop
  endfacet
  facet normal -0.453991 0.891007 0
    outer loop
      vertex -1.775 3.07439 16
      vertex -1.44392 3.24309 0
      vertex -1.775 3.07439 0
    endloop
  endfacet
  facet normal -0.544639 0.838671 0
    outer loop
      vertex -1.775 3.07439 0
      vertex -2.08664 2.87201 16
      vertex -1.775 3.07439 16
    endloop
  endfacet
  facet normal -0.544639 0.838671 0
    outer loop
      vertex -2.08664 2.87201 16
      vertex -1.775 3.07439 0
      vertex -2.08664 2.87201 0
    endloop
  endfacet
  facet normal -0.62932 0.777146 0
    outer loop
      vertex -2.08664 2.87201 0
      vertex -2.37541 2.63816 16
      vertex -2.08664 2.87201 16
    endloop
  endfacet
  facet normal -0.62932 0.777146 0
    outer loop
      vertex -2.37541 2.63816 16
      vertex -2.08664 2.87201 0
      vertex -2.37541 2.63816 0
    endloop
  endfacet
  facet normal -0.707107 0.707107 0
    outer loop
      vertex -2.63816 2.37541 0
      vertex -2.37541 2.63816 16
      vertex -2.37541 2.63816 0
    endloop
  endfacet
  facet normal -0.707107 0.707107 0
    outer loop
      vertex -2.37541 2.63816 16
      vertex -2.63816 2.37541 0
      vertex -2.63816 2.37541 16
    endloop
  endfacet
  facet normal -0.777146 0.62932 0
    outer loop
      vertex -2.87201 2.08664 0
      vertex -2.63816 2.37541 16
      vertex -2.63816 2.37541 0
    endloop
  endfacet
  facet normal -0.777146 0.62932 0
    outer loop
      vertex -2.63816 2.37541 16
      vertex -2.87201 2.08664 0
      vertex -2.87201 2.08664 16
    endloop
  endfacet
  facet normal -0.838671 0.544639 0
    outer loop
      vertex -3.07439 1.775 0
      vertex -2.87201 2.08664 16
      vertex -2.87201 2.08664 0
    endloop
  endfacet
  facet normal -0.838671 0.544639 0
    outer loop
      vertex -2.87201 2.08664 16
      vertex -3.07439 1.775 0
      vertex -3.07439 1.775 16
    endloop
  endfacet
  facet normal -0.891007 0.453991 0
    outer loop
      vertex -3.24309 1.44392 0
      vertex -3.07439 1.775 16
      vertex -3.07439 1.775 0
    endloop
  endfacet
  facet normal -0.891007 0.453991 0
    outer loop
      vertex -3.07439 1.775 16
      vertex -3.24309 1.44392 0
      vertex -3.24309 1.44392 16
    endloop
  endfacet
  facet normal -0.93358 0.358368 0
    outer loop
      vertex -3.37625 1.09701 0
      vertex -3.24309 1.44392 16
      vertex -3.24309 1.44392 0
    endloop
  endfacet
  facet normal -0.93358 0.358368 0
    outer loop
      vertex -3.24309 1.44392 16
      vertex -3.37625 1.09701 0
      vertex -3.37625 1.09701 16
    endloop
  endfacet
  facet normal -0.965926 0.258819 0
    outer loop
      vertex -3.47242 0.738087 0
      vertex -3.37625 1.09701 16
      vertex -3.37625 1.09701 0
    endloop
  endfacet
  facet normal -0.965926 0.258819 0
    outer loop
      vertex -3.37625 1.09701 16
      vertex -3.47242 0.738087 0
      vertex -3.47242 0.738087 16
    endloop
  endfacet
  facet normal -0.987688 0.156434 0
    outer loop
      vertex -3.53055 0.371076 0
      vertex -3.47242 0.738087 16
      vertex -3.47242 0.738087 0
    endloop
  endfacet
  facet normal -0.987688 0.156434 0
    outer loop
      vertex -3.47242 0.738087 16
      vertex -3.53055 0.371076 0
      vertex -3.53055 0.371076 16
    endloop
  endfacet
  facet normal -0.99863 0.0523361 0
    outer loop
      vertex -3.55 2.01127e-15 0
      vertex -3.53055 0.371076 16
      vertex -3.53055 0.371076 0
    endloop
  endfacet
  facet normal -0.99863 0.0523361 0
    outer loop
      vertex -3.53055 0.371076 16
      vertex -3.55 2.01127e-15 0
      vertex -3.55 2.01127e-15 16
    endloop
  endfacet
  facet normal -0.99863 -0.0523361 0
    outer loop
      vertex -3.53055 -0.371076 0
      vertex -3.55 2.01127e-15 16
      vertex -3.55 2.01127e-15 0
    endloop
  endfacet
  facet normal -0.99863 -0.0523361 0
    outer loop
      vertex -3.55 2.01127e-15 16
      vertex -3.53055 -0.371076 0
      vertex -3.53055 -0.371076 16
    endloop
  endfacet
  facet normal -0.987688 -0.156434 0
    outer loop
      vertex -3.47242 -0.738087 0
      vertex -3.53055 -0.371076 16
      vertex -3.53055 -0.371076 0
    endloop
  endfacet
  facet normal -0.987688 -0.156434 0
    outer loop
      vertex -3.53055 -0.371076 16
      vertex -3.47242 -0.738087 0
      vertex -3.47242 -0.738087 16
    endloop
  endfacet
  facet normal -0.965926 -0.258819 0
    outer loop
      vertex -3.37625 -1.09701 0
      vertex -3.47242 -0.738087 16
      vertex -3.47242 -0.738087 0
    endloop
  endfacet
  facet normal -0.965926 -0.258819 0
    outer loop
      vertex -3.47242 -0.738087 16
      vertex -3.37625 -1.09701 0
      vertex -3.37625 -1.09701 16
    endloop
  endfacet
  facet normal -0.93358 -0.358368 0
    outer loop
      vertex -3.24309 -1.44392 0
      vertex -3.37625 -1.09701 16
      vertex -3.37625 -1.09701 0
    endloop
  endfacet
  facet normal -0.93358 -0.358368 0
    outer loop
      vertex -3.37625 -1.09701 16
      vertex -3.24309 -1.44392 0
      vertex -3.24309 -1.44392 16
    endloop
  endfacet
  facet normal -0.891007 -0.453991 0
    outer loop
      vertex -3.07439 -1.775 0
      vertex -3.24309 -1.44392 16
      vertex -3.24309 -1.44392 0
    endloop
  endfacet
  facet normal -0.891007 -0.453991 0
    outer loop
      vertex -3.24309 -1.44392 16
      vertex -3.07439 -1.775 0
      vertex -3.07439 -1.775 16
    endloop
  endfacet
  facet normal -0.838671 -0.544639 0
    outer loop
      vertex -2.87201 -2.08664 0
      vertex -3.07439 -1.775 16
      vertex -3.07439 -1.775 0
    endloop
  endfacet
  facet normal -0.838671 -0.544639 0
    outer loop
      vertex -3.07439 -1.775 16
      vertex -2.87201 -2.08664 0
      vertex -2.87201 -2.08664 16
    endloop
  endfacet
  facet normal -0.777146 -0.62932 0
    outer loop
      vertex -2.63816 -2.37541 0
      vertex -2.87201 -2.08664 16
      vertex -2.87201 -2.08664 0
    endloop
  endfacet
  facet normal -0.777146 -0.62932 0
    outer loop
      vertex -2.87201 -2.08664 16
      vertex -2.63816 -2.37541 0
      vertex -2.63816 -2.37541 16
    endloop
  endfacet
  facet normal -0.707107 -0.707107 0
    outer loop
      vertex -2.37541 -2.63816 0
      vertex -2.63816 -2.37541 16
      vertex -2.63816 -2.37541 0
    endloop
  endfacet
  facet normal -0.707107 -0.707107 0
    outer loop
      vertex -2.63816 -2.37541 16
      vertex -2.37541 -2.63816 0
      vertex -2.37541 -2.63816 16
    endloop
  endfacet
  facet normal -0.62932 -0.777146 0
    outer loop
      vertex -2.37541 -2.63816 0
      vertex -2.08664 -2.87201 16
      vertex -2.37541 -2.63816 16
    endloop
  endfacet
  facet normal -0.62932 -0.777146 -0
    outer loop
      vertex -2.08664 -2.87201 16
      vertex -2.37541 -2.63816 0
      vertex -2.08664 -2.87201 0
    endloop
  endfacet
  facet normal -0.544639 -0.838671 0
    outer loop
      vertex -2.08664 -2.87201 0
      vertex -1.775 -3.07439 16
      vertex -2.08664 -2.87201 16
    endloop
  endfacet
  facet normal -0.544639 -0.838671 -0
    outer loop
      vertex -1.775 -3.07439 16
      vertex -2.08664 -2.87201 0
      vertex -1.775 -3.07439 0
    endloop
  endfacet
  facet normal -0.453991 -0.891007 0
    outer loop
      vertex -1.775 -3.07439 0
      vertex -1.44392 -3.24309 16
      vertex -1.775 -3.07439 16
    endloop
  endfacet
  facet normal -0.453991 -0.891007 -0
    outer loop
      vertex -1.44392 -3.24309 16
      vertex -1.775 -3.07439 0
      vertex -1.44392 -3.24309 0
    endloop
  endfacet
  facet normal -0.358368 -0.93358 0
    outer loop
      vertex -1.44392 -3.24309 0
      vertex -1.09701 -3.37625 16
      vertex -1.44392 -3.24309 16
    endloop
  endfacet
  facet normal -0.358368 -0.93358 -0
    outer loop
      vertex -1.09701 -3.37625 16
      vertex -1.44392 -3.24309 0
      vertex -1.09701 -3.37625 0
    endloop
  endfacet
  facet normal -0.258819 -0.965926 0
    outer loop
      vertex -1.09701 -3.37625 0
      vertex -0.738087 -3.47242 16
      vertex -1.09701 -3.37625 16
    endloop
  endfacet
  facet normal -0.258819 -0.965926 -0
    outer loop
      vertex -0.738087 -3.47242 16
      vertex -1.09701 -3.37625 0
      vertex -0.738087 -3.47242 0
    endloop
  endfacet
  facet normal -0.156434 -0.987688 0
    outer loop
      vertex -0.738087 -3.47242 0
      vertex -0.371076 -3.53055 16
      vertex -0.738087 -3.47242 16
    endloop
  endfacet
  facet normal -0.156434 -0.987688 -0
    outer loop
      vertex -0.371076 -3.53055 16
      vertex -0.738087 -3.47242 0
      vertex -0.371076 -3.53055 0
    endloop
  endfacet
  facet normal -0.0523361 -0.99863 0
    outer loop
      vertex -0.371076 -3.53055 0
      vertex -6.52124e-16 -3.55 16
      vertex -0.371076 -3.53055 16
    endloop
  endfacet
  facet normal -0.0523361 -0.99863 -0
    outer loop
      vertex -6.52124e-16 -3.55 16
      vertex -0.371076 -3.53055 0
      vertex -6.52124e-16 -3.55 0
    endloop
  endfacet
  facet normal 0.0523361 -0.99863 0
    outer loop
      vertex -6.52124e-16 -3.55 0
      vertex 0.371076 -3.53055 16
      vertex -6.52124e-16 -3.55 16
    endloop
  endfacet
  facet normal 0.0523361 -0.99863 0
    outer loop
      vertex 0.371076 -3.53055 16
      vertex -6.52124e-16 -3.55 0
      vertex 0.371076 -3.53055 0
    endloop
  endfacet
  facet normal 0.156434 -0.987688 0
    outer loop
      vertex 0.371076 -3.53055 0
      vertex 0.738087 -3.47242 16
      vertex 0.371076 -3.53055 16
    endloop
  endfacet
  facet normal 0.156434 -0.987688 0
    outer loop
      vertex 0.738087 -3.47242 16
      vertex 0.371076 -3.53055 0
      vertex 0.738087 -3.47242 0
    endloop
  endfacet
  facet normal 0.258819 -0.965926 0
    outer loop
      vertex 0.738087 -3.47242 0
      vertex 1.09701 -3.37625 16
      vertex 0.738087 -3.47242 16
    endloop
  endfacet
  facet normal 0.258819 -0.965926 0
    outer loop
      vertex 1.09701 -3.37625 16
      vertex 0.738087 -3.47242 0
      vertex 1.09701 -3.37625 0
    endloop
  endfacet
  facet normal 0.358368 -0.93358 0
    outer loop
      vertex 1.09701 -3.37625 0
      vertex 1.44392 -3.24309 16
      vertex 1.09701 -3.37625 16
    endloop
  endfacet
  facet normal 0.358368 -0.93358 0
    outer loop
      vertex 1.44392 -3.24309 16
      vertex 1.09701 -3.37625 0
      vertex 1.44392 -3.24309 0
    endloop
  endfacet
  facet normal 0.453991 -0.891007 0
    outer loop
      vertex 1.44392 -3.24309 0
      vertex 1.775 -3.07439 16
      vertex 1.44392 -3.24309 16
    endloop
  endfacet
  facet normal 0.453991 -0.891007 0
    outer loop
      vertex 1.775 -3.07439 16
      vertex 1.44392 -3.24309 0
      vertex 1.775 -3.07439 0
    endloop
  endfacet
  facet normal 0.544639 -0.838671 0
    outer loop
      vertex 1.775 -3.07439 0
      vertex 2.08664 -2.87201 16
      vertex 1.775 -3.07439 16
    endloop
  endfacet
  facet normal 0.544639 -0.838671 0
    outer loop
      vertex 2.08664 -2.87201 16
      vertex 1.775 -3.07439 0
      vertex 2.08664 -2.87201 0
    endloop
  endfacet
  facet normal 0.62932 -0.777146 0
    outer loop
      vertex 2.08664 -2.87201 0
      vertex 2.37541 -2.63816 16
      vertex 2.08664 -2.87201 16
    endloop
  endfacet
  facet normal 0.62932 -0.777146 0
    outer loop
      vertex 2.37541 -2.63816 16
      vertex 2.08664 -2.87201 0
      vertex 2.37541 -2.63816 0
    endloop
  endfacet
  facet normal 0.707107 -0.707107 0
    outer loop
      vertex 2.37541 -2.63816 16
      vertex 2.63816 -2.37541 0
      vertex 2.63816 -2.37541 16
    endloop
  endfacet
  facet normal 0.707107 -0.707107 0
    outer loop
      vertex 2.63816 -2.37541 0
      vertex 2.37541 -2.63816 16
      vertex 2.37541 -2.63816 0
    endloop
  endfacet
  facet normal 0.777146 -0.62932 0
    outer loop
      vertex 2.63816 -2.37541 16
      vertex 2.87201 -2.08664 0
      vertex 2.87201 -2.08664 16
    endloop
  endfacet
  facet normal 0.777146 -0.62932 0
    outer loop
      vertex 2.87201 -2.08664 0
      vertex 2.63816 -2.37541 16
      vertex 2.63816 -2.37541 0
    endloop
  endfacet
  facet normal 0.838671 -0.544639 0
    outer loop
      vertex 2.87201 -2.08664 16
      vertex 3.07439 -1.775 0
      vertex 3.07439 -1.775 16
    endloop
  endfacet
  facet normal 0.838671 -0.544639 0
    outer loop
      vertex 3.07439 -1.775 0
      vertex 2.87201 -2.08664 16
      vertex 2.87201 -2.08664 0
    endloop
  endfacet
  facet normal 0.891007 -0.453991 0
    outer loop
      vertex 3.07439 -1.775 16
      vertex 3.24309 -1.44392 0
      vertex 3.24309 -1.44392 16
    endloop
  endfacet
  facet normal 0.891007 -0.453991 0
    outer loop
      vertex 3.24309 -1.44392 0
      vertex 3.07439 -1.775 16
      vertex 3.07439 -1.775 0
    endloop
  endfacet
  facet normal 0.93358 -0.358368 0
    outer loop
      vertex 3.24309 -1.44392 16
      vertex 3.37625 -1.09701 0
      vertex 3.37625 -1.09701 16
    endloop
  endfacet
  facet normal 0.93358 -0.358368 0
    outer loop
      vertex 3.37625 -1.09701 0
      vertex 3.24309 -1.44392 16
      vertex 3.24309 -1.44392 0
    endloop
  endfacet
  facet normal 0.965926 -0.258819 0
    outer loop
      vertex 3.37625 -1.09701 16
      vertex 3.47242 -0.738087 0
      vertex 3.47242 -0.738087 16
    endloop
  endfacet
  facet normal 0.965926 -0.258819 0
    outer loop
      vertex 3.47242 -0.738087 0
      vertex 3.37625 -1.09701 16
      vertex 3.37625 -1.09701 0
    endloop
  endfacet
  facet normal 0.987688 -0.156434 0
    outer loop
      vertex 3.47242 -0.738087 16
      vertex 3.53055 -0.371076 0
      vertex 3.53055 -0.371076 16
    endloop
  endfacet
  facet normal 0.987688 -0.156434 0
    outer loop
      vertex 3.53055 -0.371076 0
      vertex 3.47242 -0.738087 16
      vertex 3.47242 -0.738087 0
    endloop
  endfacet
  facet normal 0.99863 -0.0523361 0
    outer loop
      vertex 3.53055 -0.371076 16
      vertex 3.55 0 0
      vertex 3.55 0 16
    endloop
  endfacet
  facet normal 0.99863 -0.0523361 0
    outer loop
      vertex 3.55 0 0
      vertex 3.53055 -0.371076 16
      vertex 3.53055 -0.371076 0
    endloop
  endfacet
  facet normal 0 0 -1
    outer loop
      vertex 3.53055 -0.371076 0
      vertex 3.53055 0.371076 0
      vertex 3.55 0 0
    endloop
  endfacet
  facet normal 0 0 -1
    outer loop
      vertex 3.47242 -0.738087 0
      vertex 3.53055 0.371076 0
      vertex 3.53055 -0.371076 0
    endloop
  endfacet
  facet normal 0 0 -1
    outer loop
      vertex 3.47242 -0.738087 0
      vertex 3.47242 0.738087 0
      vertex 3.53055 0.371076 0
    endloop
  endfacet
  facet normal 0 0 -1
    outer loop
      vertex 3.37625 -1.09701 0
      vertex 3.47242 0.738087 0
      vertex 3.47242 -0.738087 0
    endloop
  endfacet
  facet normal 0 0 -1
    outer loop
      vertex 3.37625 -1.09701 0
      vertex 3.37625 1.09701 0
      vertex 3.47242 0.738087 0
    endloop
  endfacet
  facet normal 0 0 -1
    outer loop
      vertex 3.24309 -1.44392 0
      vertex 3.37625 1.09701 0
      vertex 3.37625 -1.09701 0
    endloop
  endfacet
  facet normal 0 0 -1
    outer loop
      vertex 3.24309 -1.44392 0
      vertex 3.24309 1.44392 0
      vertex 3.37625 1.09701 0
    endloop
  endfacet
  facet normal 0 0 -1
    outer loop
      vertex 3.07439 -1.775 0
      vertex 3.24309 1.44392 0
      vertex 3.24309 -1.44392 0
    endloop
  endfacet
  facet normal 0 0 -1
    outer loop
      vertex 3.07439 -1.775 0
      vertex 3.07439 1.775 0
      vertex 3.24309 1.44392 0
    endloop
  endfacet
  facet normal 0 0 -1
    outer loop
      vertex 2.87201 -2.08664 0
      vertex 3.07439 1.775 0
      vertex 3.07439 -1.775 0
    endloop
  endfacet
  facet normal 0 0 -1
    outer loop
      vertex 2.87201 -2.08664 0
      vertex 2.87201 2.08664 0
      vertex 3.07439 1.775 0
    endloop
  endfacet
  facet normal 0 0 -1
    outer loop
      vertex 2.63816 -2.37541 0
      vertex 2.87201 2.08664 0
      vertex 2.87201 -2.08664 0
    endloop
  endfacet
  facet normal 0 0 -1
    outer loop
      vertex 2.63816 -2.37541 0
      vertex 2.63816 2.37541 0
      vertex 2.87201 2.08664 0
    endloop
  endfacet
  facet normal 0 0 -1
    outer loop
      vertex 2.37541 -2.63816 0
      vertex 2.63816 2.37541 0
      vertex 2.63816 -2.37541 0
    endloop
  endfacet
  facet normal 0 0 -1
    outer loop
      vertex 2.37541 -2.63816 0
      vertex 2.37541 2.63816 0
      vertex 2.63816 2.37541 0
    endloop
  endfacet
  facet normal 0 0 -1
    outer loop
      vertex 2.08664 -2.87201 0
      vertex 2.37541 2.63816 0
      vertex 2.37541 -2.63816 0
    endloop
  endfacet
  facet normal 0 0 -1
    outer loop
      vertex 2.08664 -2.87201 0
      vertex 2.08664 2.87201 0
      vertex 2.37541 2.63816 0
    endloop
  endfacet
  facet normal 0 0 -1
    outer loop
      vertex 1.775 -3.07439 0
      vertex 2.08664 2.87201 0
      vertex 2.08664 -2.87201 0
    endloop
  endfacet
  facet normal 0 0 -1
    outer loop
      vertex 1.775 -3.07439 0
      vertex 1.775 3.07439 0
      vertex 2.08664 2.87201 0
    endloop
  endfacet
  facet normal 0 0 -1
    outer loop
      vertex 1.44392 -3.24309 0
      vertex 1.775 3.07439 0
      vertex 1.775 -3.07439 0
    endloop
  endfacet
  facet normal 0 0 -1
    outer loop
      vertex 1.44392 -3.24309 0
      vertex 1.44392 3.24309 0
      vertex 1.775 3.07439 0
    endloop
  endfacet
  facet normal 0 0 -1
    outer loop
      vertex 1.09701 -3.37625 0
      vertex 1.44392 3.24309 0
      vertex 1.44392 -3.24309 0
    endloop
  endfacet
  facet normal 0 0 -1
    outer loop
      vertex 1.09701 -3.37625 0
      vertex 1.09701 3.37625 0
      vertex 1.44392 3.24309 0
    endloop
  endfacet
  facet normal 0 0 -1
    outer loop
      vertex 0.738087 -3.47242 0
      vertex 1.09701 3.37625 0
      vertex 1.09701 -3.37625 0
    endloop
  endfacet
  facet normal 0 0 -1
    outer loop
      vertex 0.738087 -3.47242 0
      vertex 0.738087 3.47242 0
      vertex 1.09701 3.37625 0
    endloop
  endfacet
  facet normal 0 0 -1
    outer loop
      vertex 0.371076 -3.53055 0
      vertex 0.738087 3.47242 0
      vertex 0.738087 -3.47242 0
    endloop
  endfacet
  facet normal 0 0 -1
    outer loop
      vertex 0.371076 -3.53055 0
      vertex 0.371076 3.53055 0
      vertex 0.738087 3.47242 0
    endloop
  endfacet
  facet normal 0 0 -1
    outer loop
      vertex 0.371076 -3.53055 0
      vertex 1.00563e-15 3.55 0
      vertex 0.371076 3.53055 0
    endloop
  endfacet
  facet normal 0 0 -1
    outer loop
      vertex -6.52124e-16 -3.55 0
      vertex 1.00563e-15 3.55 0
      vertex 0.371076 -3.53055 0
    endloop
  endfacet
  facet normal 0 0 -1
    outer loop
      vertex -0.371076 -3.53055 0
      vertex 1.00563e-15 3.55 0
      vertex -6.52124e-16 -3.55 0
    endloop
  endfacet
  facet normal 0 0 -1
    outer loop
      vertex -0.371076 -3.53055 0
      vertex -0.371076 3.53055 0
      vertex 1.00563e-15 3.55 0
    endloop
  endfacet
  facet normal 0 0 -1
    outer loop
      vertex -0.738087 -3.47242 0
      vertex -0.371076 3.53055 0
      vertex -0.371076 -3.53055 0
    endloop
  endfacet
  facet normal 0 0 -1
    outer loop
      vertex -0.738087 -3.47242 0
      vertex -0.738087 3.47242 0
      vertex -0.371076 3.53055 0
    endloop
  endfacet
  facet normal 0 0 -1
    outer loop
      vertex -1.09701 -3.37625 0
      vertex -0.738087 3.47242 0
      vertex -0.738087 -3.47242 0
    endloop
  endfacet
  facet normal 0 0 -1
    outer loop
      vertex -1.09701 -3.37625 0
      vertex -1.09701 3.37625 0
      vertex -0.738087 3.47242 0
    endloop
  endfacet
  facet normal 0 0 -1
    outer loop
      vertex -1.44392 -3.24309 0
      vertex -1.09701 3.37625 0
      vertex -1.09701 -3.37625 0
    endloop
  endfacet
  facet normal 0 0 -1
    outer loop
      vertex -1.44392 -3.24309 0
      vertex -1.44392 3.24309 0
      vertex -1.09701 3.37625 0
    endloop
  endfacet
  facet normal 0 0 -1
    outer loop
      vertex -1.775 -3.07439 0
      vertex -1.44392 3.24309 0
      vertex -1.44392 -3.24309 0
    endloop
  endfacet
  facet normal 0 0 -1
    outer loop
      vertex -1.775 -3.07439 0
      vertex -1.775 3.07439 0
      vertex -1.44392 3.24309 0
    endloop
  endfacet
  facet normal 0 0 -1
    outer loop
      vertex -2.08664 -2.87201 0
      vertex -1.775 3.07439 0
      vertex -1.775 -3.07439 0
    endloop
  endfacet
  facet normal 0 0 -1
    outer loop
      vertex -2.08664 -2.87201 0
      vertex -2.08664 2.87201 0
      vertex -1.775 3.07439 0
    endloop
  endfacet
  facet normal 0 0 -1
    outer loop
      vertex -2.37541 -2.63816 0
      vertex -2.08664 2.87201 0
      vertex -2.08664 -2.87201 0
    endloop
  endfacet
  facet normal 0 0 -1
    outer loop
      vertex -2.37541 -2.63816 0
      vertex -2.37541 2.63816 0
      vertex -2.08664 2.87201 0
    endloop
  endfacet
  facet normal 0 0 -1
    outer loop
      vertex -2.63816 -2.37541 0
      vertex -2.37541 2.63816 0
      vertex -2.37541 -2.63816 0
    endloop
  endfacet
  facet normal 0 0 -1
    outer loop
      vertex -2.63816 -2.37541 0
      vertex -2.63816 2.37541 0
      vertex -2.37541 2.63816 0
    endloop
  endfacet
  facet normal 0 0 -1
    outer loop
      vertex -2.87201 -2.08664 0
      vertex -2.63816 2.37541 0
      vertex -2.63816 -2.37541 0
    endloop
  endfacet
  facet normal 0 0 -1
    outer loop
      vertex -2.87201 -2.08664 0
      vertex -2.87201 2.08664 0
      vertex -2.63816 2.37541 0
    endloop
  endfacet
  facet normal 0 0 -1
    outer loop
      vertex -3.07439 -1.775 0
      vertex -2.87201 2.08664 0
      vertex -2.87201 -2.08664 0
    endloop
  endfacet
  facet normal 0 0 -1
    outer loop
      vertex -3.07439 -1.775 0
      vertex -3.07439 1.775 0
      vertex -2.87201 2.08664 0
    endloop
  endfacet
  facet normal 0 0 -1
    outer loop
      vertex -3.24309 -1.44392 0
      vertex -3.07439 1.775 0
      vertex -3.07439 -1.775 0
    endloop
  endfacet
  facet normal 0 0 -1
    outer loop
      vertex -3.24309 -1.44392 0
      vertex -3.24309 1.44392 0
      vertex -3.07439 1.775 0
    endloop
  endfacet
  facet normal 0 0 -1
    outer loop
      vertex -3.37625 -1.09701 0
      vertex -3.24309 1.44392 0
      vertex -3.24309 -1.44392 0
    endloop
  endfacet
  facet normal 0 0 -1
    outer loop
      vertex -3.37625 -1.09701 0
      vertex -3.37625 1.09701 0
      vertex -3.24309 1.44392 0
    endloop
  endfacet
  facet normal 0 0 -1
    outer loop
      vertex -3.47242 -0.738087 0
      vertex -3.37625 1.09701 0
      vertex -3.37625 -1.09701 0
    endloop
  endfacet
  facet normal 0 0 -1
    outer loop
      vertex -3.47242 -0.738087 0
      vertex -3.47242 0.738087 0
      vertex -3.37625 1.09701 0
    endloop
  endfacet
  facet normal 0 0 -1
    outer loop
      vertex -3.53055 -0.371076 0
      vertex -3.47242 0.738087 0
      vertex -3.47242 -0.738087 0
    endloop
  endfacet
  facet normal 0 0 -1
    outer loop
      vertex -3.53055 -0.371076 0
      vertex -3.53055 0.371076 0
      vertex -3.47242 0.738087 0
    endloop
  endfacet
  facet normal 0 -0 -1
    outer loop
      vertex -3.53055 0.371076 0
      vertex -3.53055 -0.371076 0
      vertex -3.55 2.01127e-15 0
    endloop
  endfacet
  facet normal 0 0 1
    outer loop
      vertex 3.53055 0.371076 16
      vertex 3.53055 -0.371076 16
      vertex 3.55 0 16
    endloop
  endfacet
  facet normal 0 0 1
    outer loop
      vertex 3.47242 0.738087 16
      vertex 3.53055 -0.371076 16
      vertex 3.53055 0.371076 16
    endloop
  endfacet
  facet normal 0 0 1
    outer loop
      vertex 3.47242 0.738087 16
      vertex 3.47242 -0.738087 16
      vertex 3.53055 -0.371076 16
    endloop
  endfacet
  facet normal 0 0 1
    outer loop
      vertex 3.37625 1.09701 16
      vertex 3.47242 -0.738087 16
      vertex 3.47242 0.738087 16
    endloop
  endfacet
  facet normal 0 0 1
    outer loop
      vertex 3.37625 1.09701 16
      vertex 3.37625 -1.09701 16
      vertex 3.47242 -0.738087 16
    endloop
  endfacet
  facet normal 0 0 1
    outer loop
      vertex 3.24309 1.44392 16
      vertex 3.37625 -1.09701 16
      vertex 3.37625 1.09701 16
    endloop
  endfacet
  facet normal 0 0 1
    outer loop
      vertex 3.24309 1.44392 16
      vertex 3.24309 -1.44392 16
      vertex 3.37625 -1.09701 16
    endloop
  endfacet
  facet normal 0 0 1
    outer loop
      vertex 3.07439 1.775 16
      vertex 3.24309 -1.44392 16
      vertex 3.24309 1.44392 16
    endloop
  endfacet
  facet normal 0 0 1
    outer loop
      vertex 3.07439 1.775 16
      vertex 3.07439 -1.775 16
      vertex 3.24309 -1.44392 16
    endloop
  endfacet
  facet normal 0 0 1
    outer loop
      vertex 2.87201 2.08664 16
      vertex 3.07439 -1.775 16
      vertex 3.07439 1.775 16
    endloop
  endfacet
  facet normal 0 0 1
    outer loop
      vertex 2.87201 2.08664 16
      vertex 2.87201 -2.08664 16
      vertex 3.07439 -1.775 16
    endloop
  endfacet
  facet normal 0 0 1
    outer loop
      vertex 2.63816 2.37541 16
      vertex 2.87201 -2.08664 16
      vertex 2.87201 2.08664 16
    endloop
  endfacet
  facet normal 0 0 1
    outer loop
      vertex 2.63816 2.37541 16
      vertex 2.63816 -2.37541 16
      vertex 2.87201 -2.08664 16
    endloop
  endfacet
  facet normal 0 0 1
    outer loop
      vertex 2.37541 2.63816 16
      vertex 2.63816 -2.37541 16
      vertex 2.63816 2.37541 16
    endloop
  endfacet
  facet normal 0 0 1
    outer loop
      vertex 2.37541 2.63816 16
      vertex 2.37541 -2.63816 16
      vertex 2.63816 -2.37541 16
    endloop
  endfacet
  facet normal 0 0 1
    outer loop
      vertex 2.08664 2.87201 16
      vertex 2.37541 -2.63816 16
      vertex 2.37541 2.63816 16
    endloop
  endfacet
  facet normal 0 0 1
    outer loop
      vertex 2.08664 2.87201 16
      vertex 2.08664 -2.87201 16
      vertex 2.37541 -2.63816 16
    endloop
  endfacet
  facet normal 0 0 1
    outer loop
      vertex 1.775 3.07439 16
      vertex 2.08664 -2.87201 16
      vertex 2.08664 2.87201 16
    endloop
  endfacet
  facet normal 0 0 1
    outer loop
      vertex 1.775 3.07439 16
      vertex 1.775 -3.07439 16
      vertex 2.08664 -2.87201 16
    endloop
  endfacet
  facet normal 0 0 1
    outer loop
      vertex 1.44392 3.24309 16
      vertex 1.775 -3.07439 16
      vertex 1.775 3.07439 16
    endloop
  endfacet
  facet normal 0 0 1
    outer loop
      vertex 1.44392 3.24309 16
      vertex 1.44392 -3.24309 16
      vertex 1.775 -3.07439 16
    endloop
  endfacet
  facet normal 0 0 1
    outer loop
      vertex 1.09701 3.37625 16
      vertex 1.44392 -3.24309 16
      vertex 1.44392 3.24309 16
    endloop
  endfacet
  facet normal 0 0 1
    outer loop
      vertex 1.09701 3.37625 16
      vertex 1.09701 -3.37625 16
      vertex 1.44392 -3.24309 16
    endloop
  endfacet
  facet normal 0 0 1
    outer loop
      vertex 0.738087 3.47242 16
      vertex 1.09701 -3.37625 16
      vertex 1.09701 3.37625 16
    endloop
  endfacet
  facet normal 0 0 1
    outer loop
      vertex 0.738087 3.47242 16
      vertex 0.738087 -3.47242 16
      vertex 1.09701 -3.37625 16
    endloop
  endfacet
  facet normal 0 0 1
    outer loop
      vertex 0.371076 3.53055 16
      vertex 0.738087 -3.47242 16
      vertex 0.738087 3.47242 16
    endloop
  endfacet
  facet normal 0 0 1
    outer loop
      vertex 0.371076 3.53055 16
      vertex 0.371076 -3.53055 16
      vertex 0.738087 -3.47242 16
    endloop
  endfacet
  facet normal 0 0 1
    outer loop
      vertex 1.00563e-15 3.55 16
      vertex 0.371076 -3.53055 16
      vertex 0.371076 3.53055 16
    endloop
  endfacet
  facet normal 0 0 1
    outer loop
      vertex 1.00563e-15 3.55 16
      vertex -6.52124e-16 -3.55 16
      vertex 0.371076 -3.53055 16
    endloop
  endfacet
  facet normal -0 0 1
    outer loop
      vertex -0.371076 3.53055 16
      vertex -6.52124e-16 -3.55 16
      vertex 1.00563e-15 3.55 16
    endloop
  endfacet
  facet normal 0 0 1
    outer loop
      vertex -0.371076 3.53055 16
      vertex -0.371076 -3.53055 16
      vertex -6.52124e-16 -3.55 16
    endloop
  endfacet
  facet normal -0 0 1
    outer loop
      vertex -0.738087 3.47242 16
      vertex -0.371076 -3.53055 16
      vertex -0.371076 3.53055 16
    endloop
  endfacet
  facet normal 0 0 1
    outer loop
      vertex -0.738087 3.47242 16
      vertex -0.738087 -3.47242 16
      vertex -0.371076 -3.53055 16
    endloop
  endfacet
  facet normal -0 0 1
    outer loop
      vertex -1.09701 3.37625 16
      vertex -0.738087 -3.47242 16
      vertex -0.738087 3.47242 16
    endloop
  endfacet
  facet normal 0 0 1
    outer loop
      vertex -1.09701 3.37625 16
      vertex -1.09701 -3.37625 16
      vertex -0.738087 -3.47242 16
    endloop
  endfacet
  facet normal -0 0 1
    outer loop
      vertex -1.44392 3.24309 16
      vertex -1.09701 -3.37625 16
      vertex -1.09701 3.37625 16
    endloop
  endfacet
  facet normal 0 0 1
    outer loop
      vertex -1.44392 3.24309 16
      vertex -1.44392 -3.24309 16
      vertex -1.09701 -3.37625 16
    endloop
  endfacet
  facet normal -0 0 1
    outer loop
      vertex -1.775 3.07439 16
      vertex -1.44392 -3.24309 16
      vertex -1.44392 3.24309 16
    endloop
  endfacet
  facet normal 0 0 1
    outer loop
      vertex -1.775 3.07439 16
      vertex -1.775 -3.07439 16
      vertex -1.44392 -3.24309 16
    endloop
  endfacet
  facet normal -0 0 1
    outer loop
      vertex -2.08664 2.87201 16
      vertex -1.775 -3.07439 16
      vertex -1.775 3.07439 16
    endloop
  endfacet
  facet normal 0 0 1
    outer loop
      vertex -2.08664 2.87201 16
      vertex -2.08664 -2.87201 16
      vertex -1.775 -3.07439 16
    endloop
  endfacet
  facet normal -0 0 1
    outer loop
      vertex -2.37541 2.63816 16
      vertex -2.08664 -2.87201 16
      vertex -2.08664 2.87201 16
    endloop
  endfacet
  facet normal 0 0 1
    outer loop
      vertex -2.37541 2.63816 16
      vertex -2.37541 -2.63816 16
      vertex -2.08664 -2.87201 16
    endloop
  endfacet
  facet normal -0 0 1
    outer loop
      vertex -2.63816 2.37541 16
      vertex -2.37541 -2.63816 16
      vertex -2.37541 2.63816 16
    endloop
  endfacet
  facet normal 0 0 1
    outer loop
      vertex -2.63816 2.37541 16
      vertex -2.63816 -2.37541 16
      vertex -2.37541 -2.63816 16
    endloop
  endfacet
  facet normal -0 0 1
    outer loop
      vertex -2.87201 2.08664 16
      vertex -2.63816 -2.37541 16
      vertex -2.63816 2.37541 16
    endloop
  endfacet
  facet normal 0 0 1
    outer loop
      vertex -2.87201 2.08664 16
      vertex -2.87201 -2.08664 16
      vertex -2.63816 -2.37541 16
    endloop
  endfacet
  facet normal -0 0 1
    outer loop
      vertex -3.07439 1.775 16
      vertex -2.87201 -2.08664 16
      vertex -2.87201 2.08664 16
    endloop
  endfacet
  facet normal 0 0 1
    outer loop
      vertex -3.07439 1.775 16
      vertex -3.07439 -1.775 16
      vertex -2.87201 -2.08664 16
    endloop
  endfacet
  facet normal -0 0 1
    outer loop
      vertex -3.24309 1.44392 16
      vertex -3.07439 -1.775 16
      vertex -3.07439 1.775 16
    endloop
  endfacet
  facet normal 0 0 1
    outer loop
      vertex -3.24309 1.44392 16
      vertex -3.24309 -1.44392 16
      vertex -3.07439 -1.775 16
    endloop
  endfacet
  facet normal -0 0 1
    outer loop
      vertex -3.37625 1.09701 16
      vertex -3.24309 -1.44392 16
      vertex -3.24309 1.44392 16
    endloop
  endfacet
  facet normal 0 0 1
    outer loop
      vertex -3.37625 1.09701 16
      vertex -3.37625 -1.09701 16
      vertex -3.24309 -1.44392 16
    endloop
  endfacet
  facet normal -0 0 1
    outer loop
      vertex -3.47242 0.738087 16
      vertex -3.37625 -1.09701 16
      vertex -3.37625 1.09701 16
    endloop
  endfacet
  facet normal 0 0 1
    outer loop
      vertex -3.47242 0.738087 16
      vertex -3.47242 -0.738087 16
      vertex -3.37625 -1.09701 16
    endloop
  endfacet
  facet normal -0 0 1
    outer loop
      vertex -3.53055 0.371076 16
      vertex -3.47242 -0.738087 16
      vertex -3.47242 0.738087 16
    endloop
  endfacet
  facet normal 0 0 1
    outer loop
      vertex -3.53055 0.371076 16
      vertex -3.53055 -0.371076 16
      vertex -3.47242 -0.738087 16
    endloop
  endfacet
  facet normal 0 -0 1
    outer loop
      vertex -3.53055 -0.371076 16
      vertex -3.53055 0.371076 16
      vertex -3.55 2.01127e-15 16
    endloop
  endfacet
endsolid OpenSCAD_Model
