  0
SECTION
  2
BLOCKS
  0
ENDSEC
  0
SECTION
  2
ENTITIES
  0
LINE
  8
0
 10
0
 11
0
 20
0
 21
90
  0
LINE
  8
0
 10
0
 11
100
 20
90
 21
90
  0
LINE
  8
0
 10
100
 11
100
 20
90
 21
24
  0
LINE
  8
0
 10
100
 11
94.393
 20
24
 21
24
  0
LINE
  8
0
 10
94.393
 11
93.282
 20
24
 21
25.023
  0
LINE
  8
0
 10
93.282
 11
91.473
 20
25.023
 21
25.816
  0
LINE
  8
0
 10
91.473
 11
89.505
 20
25.816
 21
25.98
  0
LINE
  8
0
 10
89.505
 11
87.59
 20
25.98
 21
25.495
  0
LINE
  8
0
 10
87.59
 11
85.936
 20
25.495
 21
24.414
  0
LINE
  8
0
 10
85.936
 11
84.723
 20
24.414
 21
22.856
  0
LINE
  8
0
 10
84.723
 11
84.082
 20
22.856
 21
20.988
  0
LINE
  8
0
 10
84.082
 11
84.082
 20
20.988
 21
19.012
  0
LINE
  8
0
 10
84.082
 11
84.723
 20
19.012
 21
17.144
  0
LINE
  8
0
 10
84.723
 11
85.936
 20
17.144
 21
15.586
  0
LINE
  8
0
 10
85.936
 11
87.59
 20
15.586
 21
14.505
  0
LINE
  8
0
 10
87.59
 11
89.505
 20
14.505
 21
14.02
  0
LINE
  8
0
 10
89.505
 11
91.473
 20
14.02
 21
14.184
  0
LINE
  8
0
 10
91.473
 11
93.282
 20
14.184
 21
14.977
  0
LINE
  8
0
 10
93.282
 11
94.393
 20
14.977
 21
16
  0
LINE
  8
0
 10
94.393
 11
100
 20
16
 21
16
  0
LINE
  8
0
 10
100
 11
100
 20
16
 21
0
  0
LINE
  8
0
 10
100
 11
70
 20
0
 21
0
  0
LINE
  8
0
 10
70
 11
70
 20
0
 21
1.5
  0
LINE
  8
0
 10
70
 11
73
 20
1.5
 21
1.5
  0
LINE
  8
0
 10
73
 11
73
 20
1.5
 21
7.5
  0
LINE
  8
0
 10
73
 11
70
 20
7.5
 21
7.5
  0
LINE
  8
0
 10
70
 11
70
 20
7.5
 21
13.5
  0
LINE
  8
0
 10
70
 11
73
 20
13.5
 21
13.5
  0
LINE
  8
0
 10
73
 11
73
 20
13.5
 21
19.5
  0
LINE
  8
0
 10
73
 11
70
 20
19.5
 21
19.5
  0
LINE
  8
0
 10
70
 11
70
 20
19.5
 21
25.5
  0
LINE
  8
0
 10
70
 11
73
 20
25.5
 21
25.5
  0
LINE
  8
0
 10
73
 11
73
 20
25.5
 21
31.5
  0
LINE
  8
0
 10
73
 11
70
 20
31.5
 21
31.5
  0
LINE
  8
0
 10
70
 11
70
 20
31.5
 21
37.5
  0
LINE
  8
0
 10
70
 11
73
 20
37.5
 21
37.5
  0
LINE
  8
0
 10
73
 11
73
 20
37.5
 21
43.5
  0
LINE
  8
0
 10
73
 11
70
 20
43.5
 21
43.5
  0
LINE
  8
0
 10
70
 11
70
 20
43.5
 21
49.5
  0
LINE
  8
0
 10
70
 11
36
 20
49.5
 21
49.5
  0
LINE
  8
0
 10
36
 11
36
 20
49.5
 21
65.5
  0
LINE
  8
0
 10
36
 11
63.5
 20
65.5
 21
65.5
  0
LINE
  8
0
 10
63.5
 11
63.5
 20
65.5
 21
77.8
  0
LINE
  8
0
 10
63.5
 11
42
 20
77.8
 21
77.8
  0
LINE
  8
0
 10
42
 11
42
 20
77.8
 21
85.5
  0
LINE
  8
0
 10
42
 11
34
 20
85.5
 21
85.5
  0
LINE
  8
0
 10
34
 11
34
 20
85.5
 21
77.8
  0
LINE
  8
0
 10
34
 11
20
 20
77.8
 21
77.8
  0
LINE
  8
0
 10
20
 11
20
 20
77.8
 21
45.5
  0
LINE
  8
0
 10
20
 11
20.057
 20
45.5
 21
45.5
  0
LINE
  8
0
 10
20.057
 11
20
 20
45.5
 21
45.25
  0
LINE
  8
0
 10
20
 11
20.421
 20
45.25
 21
43.406
  0
LINE
  8
0
 10
20.421
 11
21.6
 20
43.406
 21
41.927
  0
LINE
  8
0
 10
21.6
 11
23.304
 20
41.927
 21
41.107
  0
LINE
  8
0
 10
23.304
 11
25.196
 20
41.107
 21
41.107
  0
LINE
  8
0
 10
25.196
 11
26.9
 20
41.107
 21
41.927
  0
LINE
  8
0
 10
26.9
 11
28.079
 20
41.927
 21
43.406
  0
LINE
  8
0
 10
28.079
 11
28.101
 20
43.406
 21
43.5
  0
LINE
  8
0
 10
28.101
 11
51.899
 20
43.5
 21
43.5
  0
LINE
  8
0
 10
51.899
 11
51.921
 20
43.5
 21
43.406
  0
LINE
  8
0
 10
51.921
 11
53.1
 20
43.406
 21
41.927
  0
LINE
  8
0
 10
53.1
 11
54.804
 20
41.927
 21
41.107
  0
LINE
  8
0
 10
54.804
 11
56.696
 20
41.107
 21
41.107
  0
LINE
  8
0
 10
56.696
 11
58.4
 20
41.107
 21
41.927
  0
LINE
  8
0
 10
58.4
 11
59.579
 20
41.927
 21
43.406
  0
LINE
  8
0
 10
59.579
 11
60
 20
43.406
 21
45.25
  0
LINE
  8
0
 10
60
 11
59.943
 20
45.25
 21
45.5
  0
LINE
  8
0
 10
59.943
 11
64
 20
45.5
 21
45.5
  0
LINE
  8
0
 10
64
 11
64
 20
45.5
 21
43.5
  0
LINE
  8
0
 10
64
 11
67
 20
43.5
 21
43.5
  0
LINE
  8
0
 10
67
 11
67
 20
43.5
 21
37.5
  0
LINE
  8
0
 10
67
 11
64
 20
37.5
 21
37.5
  0
LINE
  8
0
 10
64
 11
64
 20
37.5
 21
35.5
  0
LINE
  8
0
 10
64
 11
59.943
 20
35.5
 21
35.5
  0
LINE
  8
0
 10
59.943
 11
60
 20
35.5
 21
35.75
  0
LINE
  8
0
 10
60
 11
59.579
 20
35.75
 21
37.594
  0
LINE
  8
0
 10
59.579
 11
58.4
 20
37.594
 21
39.073
  0
LINE
  8
0
 10
58.4
 11
56.696
 20
39.073
 21
39.893
  0
LINE
  8
0
 10
56.696
 11
54.804
 20
39.893
 21
39.893
  0
LINE
  8
0
 10
54.804
 11
53.1
 20
39.893
 21
39.073
  0
LINE
  8
0
 10
53.1
 11
51.921
 20
39.073
 21
37.594
  0
LINE
  8
0
 10
51.921
 11
51.899
 20
37.594
 21
37.5
  0
LINE
  8
0
 10
51.899
 11
28.101
 20
37.5
 21
37.5
  0
LINE
  8
0
 10
28.101
 11
28.079
 20
37.5
 21
37.594
  0
LINE
  8
0
 10
28.079
 11
26.9
 20
37.594
 21
39.073
  0
LINE
  8
0
 10
26.9
 11
25.196
 20
39.073
 21
39.893
  0
LINE
  8
0
 10
25.196
 11
23.304
 20
39.893
 21
39.893
  0
LINE
  8
0
 10
23.304
 11
21.6
 20
39.893
 21
39.073
  0
LINE
  8
0
 10
21.6
 11
20.421
 20
39.073
 21
37.594
  0
LINE
  8
0
 10
20.421
 11
20
 20
37.594
 21
35.75
  0
LINE
  8
0
 10
20
 11
20.057
 20
35.75
 21
35.5
  0
LINE
  8
0
 10
20.057
 11
20
 20
35.5
 21
35.5
  0
LINE
  8
0
 10
20
 11
20
 20
35.5
 21
33.5
  0
LINE
  8
0
 10
20
 11
20.057
 20
33.5
 21
33.5
  0
LINE
  8
0
 10
20.057
 11
20
 20
33.5
 21
33.25
  0
LINE
  8
0
 10
20
 11
20.421
 20
33.25
 21
31.406
  0
LINE
  8
0
 10
20.421
 11
21.6
 20
31.406
 21
29.927
  0
LINE
  8
0
 10
21.6
 11
23.304
 20
29.927
 21
29.107
  0
LINE
  8
0
 10
23.304
 11
25.196
 20
29.107
 21
29.107
  0
LINE
  8
0
 10
25.196
 11
26.9
 20
29.107
 21
29.927
  0
LINE
  8
0
 10
26.9
 11
28.079
 20
29.927
 21
31.406
  0
LINE
  8
0
 10
28.079
 11
28.101
 20
31.406
 21
31.5
  0
LINE
  8
0
 10
28.101
 11
51.899
 20
31.5
 21
31.5
  0
LINE
  8
0
 10
51.899
 11
51.921
 20
31.5
 21
31.406
  0
LINE
  8
0
 10
51.921
 11
53.1
 20
31.406
 21
29.927
  0
LINE
  8
0
 10
53.1
 11
54.804
 20
29.927
 21
29.107
  0
LINE
  8
0
 10
54.804
 11
56.696
 20
29.107
 21
29.107
  0
LINE
  8
0
 10
56.696
 11
58.4
 20
29.107
 21
29.927
  0
LINE
  8
0
 10
58.4
 11
59.579
 20
29.927
 21
31.406
  0
LINE
  8
0
 10
59.579
 11
60
 20
31.406
 21
33.25
  0
LINE
  8
0
 10
60
 11
59.943
 20
33.25
 21
33.5
  0
LINE
  8
0
 10
59.943
 11
64
 20
33.5
 21
33.5
  0
LINE
  8
0
 10
64
 11
64
 20
33.5
 21
31.5
  0
LINE
  8
0
 10
64
 11
67
 20
31.5
 21
31.5
  0
LINE
  8
0
 10
67
 11
67
 20
31.5
 21
25.5
  0
LINE
  8
0
 10
67
 11
64
 20
25.5
 21
25.5
  0
LINE
  8
0
 10
64
 11
64
 20
25.5
 21
23.5
  0
LINE
  8
0
 10
64
 11
59.943
 20
23.5
 21
23.5
  0
LINE
  8
0
 10
59.943
 11
60
 20
23.5
 21
23.75
  0
LINE
  8
0
 10
60
 11
59.579
 20
23.75
 21
25.594
  0
LINE
  8
0
 10
59.579
 11
58.4
 20
25.594
 21
27.073
  0
LINE
  8
0
 10
58.4
 11
56.696
 20
27.073
 21
27.893
  0
LINE
  8
0
 10
56.696
 11
54.804
 20
27.893
 21
27.893
  0
LINE
  8
0
 10
54.804
 11
53.1
 20
27.893
 21
27.073
  0
LINE
  8
0
 10
53.1
 11
51.921
 20
27.073
 21
25.594
  0
LINE
  8
0
 10
51.921
 11
51.899
 20
25.594
 21
25.5
  0
LINE
  8
0
 10
51.899
 11
28.101
 20
25.5
 21
25.5
  0
LINE
  8
0
 10
28.101
 11
28.079
 20
25.5
 21
25.594
  0
LINE
  8
0
 10
28.079
 11
26.9
 20
25.594
 21
27.073
  0
LINE
  8
0
 10
26.9
 11
25.196
 20
27.073
 21
27.893
  0
LINE
  8
0
 10
25.196
 11
23.304
 20
27.893
 21
27.893
  0
LINE
  8
0
 10
23.304
 11
21.6
 20
27.893
 21
27.073
  0
LINE
  8
0
 10
21.6
 11
20.421
 20
27.073
 21
25.594
  0
LINE
  8
0
 10
20.421
 11
20
 20
25.594
 21
23.75
  0
LINE
  8
0
 10
20
 11
20.057
 20
23.75
 21
23.5
  0
LINE
  8
0
 10
20.057
 11
20
 20
23.5
 21
23.5
  0
LINE
  8
0
 10
20
 11
20
 20
23.5
 21
21.5
  0
LINE
  8
0
 10
20
 11
20.057
 20
21.5
 21
21.5
  0
LINE
  8
0
 10
20.057
 11
20
 20
21.5
 21
21.25
  0
LINE
  8
0
 10
20
 11
20.421
 20
21.25
 21
19.406
  0
LINE
  8
0
 10
20.421
 11
21.6
 20
19.406
 21
17.927
  0
LINE
  8
0
 10
21.6
 11
23.304
 20
17.927
 21
17.107
  0
LINE
  8
0
 10
23.304
 11
25.196
 20
17.107
 21
17.107
  0
LINE
  8
0
 10
25.196
 11
26.9
 20
17.107
 21
17.927
  0
LINE
  8
0
 10
26.9
 11
28.079
 20
17.927
 21
19.406
  0
LINE
  8
0
 10
28.079
 11
28.101
 20
19.406
 21
19.5
  0
LINE
  8
0
 10
28.101
 11
51.899
 20
19.5
 21
19.5
  0
LINE
  8
0
 10
51.899
 11
51.921
 20
19.5
 21
19.406
  0
LINE
  8
0
 10
51.921
 11
53.1
 20
19.406
 21
17.927
  0
LINE
  8
0
 10
53.1
 11
54.804
 20
17.927
 21
17.107
  0
LINE
  8
0
 10
54.804
 11
56.696
 20
17.107
 21
17.107
  0
LINE
  8
0
 10
56.696
 11
58.4
 20
17.107
 21
17.927
  0
LINE
  8
0
 10
58.4
 11
59.579
 20
17.927
 21
19.406
  0
LINE
  8
0
 10
59.579
 11
60
 20
19.406
 21
21.25
  0
LINE
  8
0
 10
60
 11
59.943
 20
21.25
 21
21.5
  0
LINE
  8
0
 10
59.943
 11
64
 20
21.5
 21
21.5
  0
LINE
  8
0
 10
64
 11
64
 20
21.5
 21
19.5
  0
LINE
  8
0
 10
64
 11
67
 20
19.5
 21
19.5
  0
LINE
  8
0
 10
67
 11
67
 20
19.5
 21
13.5
  0
LINE
  8
0
 10
67
 11
64
 20
13.5
 21
13.5
  0
LINE
  8
0
 10
64
 11
64
 20
13.5
 21
11.5
  0
LINE
  8
0
 10
64
 11
59.943
 20
11.5
 21
11.5
  0
LINE
  8
0
 10
59.943
 11
60
 20
11.5
 21
11.75
  0
LINE
  8
0
 10
60
 11
59.579
 20
11.75
 21
13.594
  0
LINE
  8
0
 10
59.579
 11
58.4
 20
13.594
 21
15.073
  0
LINE
  8
0
 10
58.4
 11
56.696
 20
15.073
 21
15.893
  0
LINE
  8
0
 10
56.696
 11
54.804
 20
15.893
 21
15.893
  0
LINE
  8
0
 10
54.804
 11
53.1
 20
15.893
 21
15.073
  0
LINE
  8
0
 10
53.1
 11
51.921
 20
15.073
 21
13.594
  0
LINE
  8
0
 10
51.921
 11
51.899
 20
13.594
 21
13.5
  0
LINE
  8
0
 10
51.899
 11
28.101
 20
13.5
 21
13.5
  0
LINE
  8
0
 10
28.101
 11
28.079
 20
13.5
 21
13.594
  0
LINE
  8
0
 10
28.079
 11
26.9
 20
13.594
 21
15.073
  0
LINE
  8
0
 10
26.9
 11
25.196
 20
15.073
 21
15.893
  0
LINE
  8
0
 10
25.196
 11
23.304
 20
15.893
 21
15.893
  0
LINE
  8
0
 10
23.304
 11
21.6
 20
15.893
 21
15.073
  0
LINE
  8
0
 10
21.6
 11
20.421
 20
15.073
 21
13.594
  0
LINE
  8
0
 10
20.421
 11
20
 20
13.594
 21
11.75
  0
LINE
  8
0
 10
20
 11
20.057
 20
11.75
 21
11.5
  0
LINE
  8
0
 10
20.057
 11
20
 20
11.5
 21
11.5
  0
LINE
  8
0
 10
20
 11
20
 20
11.5
 21
9.5
  0
LINE
  8
0
 10
20
 11
20.057
 20
9.5
 21
9.5
  0
LINE
  8
0
 10
20.057
 11
20
 20
9.5
 21
9.25
  0
LINE
  8
0
 10
20
 11
20.421
 20
9.25
 21
7.406
  0
LINE
  8
0
 10
20.421
 11
21.6
 20
7.406
 21
5.927
  0
LINE
  8
0
 10
21.6
 11
23.304
 20
5.927
 21
5.107
  0
LINE
  8
0
 10
23.304
 11
25.196
 20
5.107
 21
5.107
  0
LINE
  8
0
 10
25.196
 11
26.9
 20
5.107
 21
5.927
  0
LINE
  8
0
 10
26.9
 11
28.079
 20
5.927
 21
7.406
  0
LINE
  8
0
 10
28.079
 11
28.101
 20
7.406
 21
7.5
  0
LINE
  8
0
 10
28.101
 11
51.899
 20
7.5
 21
7.5
  0
LINE
  8
0
 10
51.899
 11
51.921
 20
7.5
 21
7.406
  0
LINE
  8
0
 10
51.921
 11
53.1
 20
7.406
 21
5.927
  0
LINE
  8
0
 10
53.1
 11
54.804
 20
5.927
 21
5.107
  0
LINE
  8
0
 10
54.804
 11
56.696
 20
5.107
 21
5.107
  0
LINE
  8
0
 10
56.696
 11
58.4
 20
5.107
 21
5.927
  0
LINE
  8
0
 10
58.4
 11
59.579
 20
5.927
 21
7.406
  0
LINE
  8
0
 10
59.579
 11
60
 20
7.406
 21
9.25
  0
LINE
  8
0
 10
60
 11
59.943
 20
9.25
 21
9.5
  0
LINE
  8
0
 10
59.943
 11
64
 20
9.5
 21
9.5
  0
LINE
  8
0
 10
64
 11
64
 20
9.5
 21
7.5
  0
LINE
  8
0
 10
64
 11
67
 20
7.5
 21
7.5
  0
LINE
  8
0
 10
67
 11
67
 20
7.5
 21
1.5
  0
LINE
  8
0
 10
67
 11
64
 20
1.5
 21
1.5
  0
LINE
  8
0
 10
64
 11
64
 20
1.5
 21
0
  0
LINE
  8
0
 10
64
 11
59.943
 20
0
 21
0
  0
LINE
  8
0
 10
59.943
 11
59.579
 20
0
 21
1.594
  0
LINE
  8
0
 10
59.579
 11
58.4
 20
1.594
 21
3.073
  0
LINE
  8
0
 10
58.4
 11
56.696
 20
3.073
 21
3.893
  0
LINE
  8
0
 10
56.696
 11
54.804
 20
3.893
 21
3.893
  0
LINE
  8
0
 10
54.804
 11
53.1
 20
3.893
 21
3.073
  0
LINE
  8
0
 10
53.1
 11
51.921
 20
3.073
 21
1.594
  0
LINE
  8
0
 10
51.921
 11
51.899
 20
1.594
 21
1.5
  0
LINE
  8
0
 10
51.899
 11
28.101
 20
1.5
 21
1.5
  0
LINE
  8
0
 10
28.101
 11
28.079
 20
1.5
 21
1.594
  0
LINE
  8
0
 10
28.079
 11
26.9
 20
1.594
 21
3.073
  0
LINE
  8
0
 10
26.9
 11
25.196
 20
3.073
 21
3.893
  0
LINE
  8
0
 10
25.196
 11
23.304
 20
3.893
 21
3.893
  0
LINE
  8
0
 10
23.304
 11
21.6
 20
3.893
 21
3.073
  0
LINE
  8
0
 10
21.6
 11
20.421
 20
3.073
 21
1.594
  0
LINE
  8
0
 10
20.421
 11
20.057
 20
1.594
 21
0
  0
LINE
  8
0
 10
20.057
 11
0
 20
0
 21
0
  0
ENDSEC
  0
SECTION
  2
OBJECTS
  0
DICTIONARY
  0
ENDSEC
  0
EOF
