  0
SECTION
  2
HEADER
  9
$ACADVER
  1
AC1014
  9
$HANDSEED
  5
FFFF
  9
$MEASUREMENT
 70
     1
  0
ENDSEC
  0
SECTION
  2
TABLES
  0
TABLE
  2
VPORT
  5
8
330
0
100
AcDbSymbolTable
 70
     4
  0
VPORT
  5
2E
330
8
100
AcDbSymbolTableRecord
100
AcDbViewportTableRecord
  2
*ACTIVE
 70
     0
 10
0.0
 20
0.0
 11
1.0
 21
1.0
 12
210.0
 22
148.5
 13
0.0
 23
0.0
 14
10.0
 24
10.0
 15
10.0
 25
10.0
 16
0.0
 26
0.0
 36
1.0
 17
0.0
 27
0.0
 37
0.0
 40
341.0
 41
1.24
 42
50.0
 43
0.0
 44
0.0
 50
0.0
 51
0.0
 71
     0
 72
   100
 73
     1
 74
     3
 75
     0
 76
     0
 77
     0
 78
     0
  0
ENDTAB
  0
TABLE
  2
LTYPE
  5
5
330
0
100
AcDbSymbolTable
 70
     1
  0
LTYPE
  5
14
330
5
100
AcDbSymbolTableRecord
100
AcDbLinetypeTableRecord
  2
BYBLOCK
 70
     0
  3

 72
    65
 73
     0
 40
0.0
  0
LTYPE
  5
15
330
5
100
AcDbSymbolTableRecord
100
AcDbLinetypeTableRecord
  2
BYLAYER
 70
     0
  3

 72
    65
 73
     0
 40
0.0
  0
LTYPE
  5
16
330
5
100
AcDbSymbolTableRecord
100
AcDbLinetypeTableRecord
  2
CONTINUOUS
 70
     0
  3
Solid line
 72
    65
 73
     0
 40
0.0
  0
ENDTAB
  0
TABLE
  2
LAYER
  5
2
100
AcDbSymbolTable
 70
2
  0
LAYER
  5
50
100
AcDbSymbolTableRecord
100
AcDbLayerTableRecord
  2
0
 70
0
  6
CONTINUOUS
  0
LAYER
  5
51
100
AcDbSymbolTableRecord
100
AcDbLayerTableRecord
  2
Layer_1
 70
0
  6
CONTINUOUS
  0
ENDTAB
  0
TABLE
  2
STYLE
  5
3
330
0
100
AcDbSymbolTable
 70
     1
  0
STYLE
  5
11
330
3
100
AcDbSymbolTableRecord
100
AcDbTextStyleTableRecord
  2
STANDARD
 70
     0
 40
0.0
 41
1.0
 50
0.0
 71
     0
 42
2.5
  3
txt
  4

  0
ENDTAB
  0
TABLE
  2
VIEW
  5
6
330
0
100
AcDbSymbolTable
 70
     0
  0
ENDTAB
  0
TABLE
  2
UCS
  5
7
330
0
100
AcDbSymbolTable
 70
     0
  0
ENDTAB
  0
TABLE
  2
APPID
  5
9
330
0
100
AcDbSymbolTable
 70
     2
  0
APPID
  5
12
330
9
100
AcDbSymbolTableRecord
100
AcDbRegAppTableRecord
  2
ACAD
 70
     0
  0
ENDTAB
  0
TABLE
  2
DIMSTYLE
  5
A
330
0
100
AcDbSymbolTable
 70
     1
  0
DIMSTYLE
105
27
330
A
100
AcDbSymbolTableRecord
100
AcDbDimStyleTableRecord
  2
ISO-25
 70
     0
  3

  4

  5

  6

  7

 40
1.0
 41
2.5
 42
0.625
 43
3.75
 44
1.25
 45
0.0
 46
0.0
 47
0.0
 48
0.0
140
2.5
141
2.5
142
0.0
143
0.03937007874016
144
1.0
145
0.0
146
1.0
147
0.625
 71
     0
 72
     0
 73
     0
 74
     0
 75
     0
 76
     0
 77
     1
 78
     8
170
     0
171
     3
172
     1
173
     0
174
     0
175
     0
176
     0
177
     0
178
     0
270
     2
271
     2
272
     2
273
     2
274
     3
340
11
275
     0
280
     0
281
     0
282
     0
283
     0
284
     8
285
     0
286
     0
287
     3
288
     0
  0
ENDTAB
  0
TABLE
  2
BLOCK_RECORD
  5
1
330
0
100
AcDbSymbolTable
 70
     1
  0
BLOCK_RECORD
  5
1F
330
1
100
AcDbSymbolTableRecord
100
AcDbBlockTableRecord
  2
*MODEL_SPACE
  0
BLOCK_RECORD
  5
1B
330
1
100
AcDbSymbolTableRecord
100
AcDbBlockTableRecord
  2
*PAPER_SPACE
  0
ENDTAB
  0
ENDSEC
  0
SECTION
  2
BLOCKS
  0
BLOCK
  5
20
330
1F
100
AcDbEntity
  8
0
100
AcDbBlockBegin
  2
*MODEL_SPACE
 70
     0
 10
0.0
 20
0.0
 30
0.0
  3
*MODEL_SPACE
  1

  0
ENDBLK
  5
21
330
1F
100
AcDbEntity
  8
0
100
AcDbBlockEnd
  0
BLOCK
  5
1C
330
1B
100
AcDbEntity
 67
     1
  8
0
100
AcDbBlockBegin
  2
*PAPER_SPACE
  1

  0
ENDBLK
  5
1D
330
1B
100
AcDbEntity
 67
     1
  8
0
100
AcDbBlockEnd
  0
ENDSEC
  0
SECTION
  2
ENTITIES
  0
LWPOLYLINE
  5
100
100
AcDbEntity
  8
Layer_1
 62
7
100
AcDbPolyline
 90
193
 70
0
 10
125.533009
 20
148.341927
 30
0.0
 10
126.028027
 20
148.381720
 30
0.0
 10
127.347416
 20
148.165538
 30
0.0
 10
129.181296
 20
147.398176
 30
0.0
 10
129.181296
 20
146.112936
 30
0.0
 10
127.347416
 20
145.345573
 30
0.0
 10
126.028027
 20
145.129391
 30
0.0
 10
125.533009
 20
145.169184
 30
0.0
 10
125.272518
 20
143.189113
 30
0.0
 10
125.760762
 20
143.099649
 30
0.0
 10
126.979116
 20
142.549316
 30
0.0
 10
128.552222
 20
141.333502
 30
0.0
 10
128.219482
 20
140.091724
 30
0.0
 10
126.249289
 20
139.825307
 30
0.0
 10
124.918893
 20
139.957951
 30
0.0
 10
124.451251
 20
140.124462
 30
0.0
 10
123.686993
 20
138.279576
 30
0.0
 10
124.135444
 20
138.066498
 30
0.0
 10
125.170071
 20
137.219831
 30
0.0
 10
126.374596
 20
135.638258
 30
0.0
 10
125.731976
 20
134.524891
 30
0.0
 10
123.760089
 20
134.777480
 30
0.0
 10
122.509280
 20
135.249920
 30
0.0
 10
122.100622
 20
135.531860
 30
0.0
 10
120.884809
 20
133.947464
 30
0.0
 10
121.262987
 20
133.625731
 30
0.0
 10
122.043049
 20
132.540022
 30
0.0
 10
122.797429
 20
130.700498
 30
0.0
 10
121.888391
 20
129.791460
 30
0.0
 10
120.048867
 20
130.545840
 30
0.0
 10
118.963158
 20
131.325902
 30
0.0
 10
118.641424
 20
131.704080
 30
0.0
 10
117.057029
 20
130.488267
 30
0.0
 10
117.338969
 20
130.079609
 30
0.0
 10
117.811409
 20
128.828800
 30
0.0
 10
118.063998
 20
126.856913
 30
0.0
 10
116.950631
 20
126.214293
 30
0.0
 10
115.369058
 20
127.418818
 30
0.0
 10
114.522391
 20
128.453444
 30
0.0
 10
114.309313
 20
128.901896
 30
0.0
 10
112.464427
 20
128.137638
 30
0.0
 10
112.630938
 20
127.669996
 30
0.0
 10
112.763582
 20
126.339600
 30
0.0
 10
112.497164
 20
124.369407
 30
0.0
 10
111.255387
 20
124.036667
 30
0.0
 10
110.039573
 20
125.609773
 30
0.0
 10
109.489240
 20
126.828127
 30
0.0
 10
109.399776
 20
127.316371
 30
0.0
 10
107.419704
 20
127.055880
 30
0.0
 10
107.459498
 20
126.560862
 30
0.0
 10
107.243316
 20
125.241473
 30
0.0
 10
106.475953
 20
123.407593
 30
0.0
 10
105.190713
 20
123.407593
 30
0.0
 10
104.423351
 20
125.241473
 30
0.0
 10
104.207169
 20
126.560862
 30
0.0
 10
104.246962
 20
127.055880
 30
0.0
 10
102.266891
 20
127.316371
 30
0.0
 10
102.177427
 20
126.828127
 30
0.0
 10
101.627093
 20
125.609773
 30
0.0
 10
100.411280
 20
124.036667
 30
0.0
 10
99.169502
 20
124.369407
 30
0.0
 10
98.903084
 20
126.339600
 30
0.0
 10
99.035729
 20
127.669996
 30
0.0
 10
99.202240
 20
128.137638
 30
0.0
 10
97.357353
 20
128.901896
 30
0.0
 10
97.144276
 20
128.453444
 30
0.0
 10
96.297609
 20
127.418818
 30
0.0
 10
94.716036
 20
126.214293
 30
0.0
 10
93.602669
 20
126.856913
 30
0.0
 10
93.855258
 20
128.828800
 30
0.0
 10
94.327698
 20
130.079609
 30
0.0
 10
94.609638
 20
130.488267
 30
0.0
 10
93.025242
 20
131.704080
 30
0.0
 10
92.703509
 20
131.325902
 30
0.0
 10
91.617800
 20
130.545840
 30
0.0
 10
89.778276
 20
129.791460
 30
0.0
 10
88.869238
 20
130.700498
 30
0.0
 10
89.623618
 20
132.540022
 30
0.0
 10
90.403680
 20
133.625731
 30
0.0
 10
90.781858
 20
133.947464
 30
0.0
 10
89.566044
 20
135.531860
 30
0.0
 10
89.157387
 20
135.249920
 30
0.0
 10
87.906578
 20
134.777480
 30
0.0
 10
85.934691
 20
134.524891
 30
0.0
 10
85.292071
 20
135.638258
 30
0.0
 10
86.496596
 20
137.219831
 30
0.0
 10
87.531222
 20
138.066498
 30
0.0
 10
87.979673
 20
138.279576
 30
0.0
 10
87.215416
 20
140.124462
 30
0.0
 10
86.747773
 20
139.957951
 30
0.0
 10
85.417378
 20
139.825307
 30
0.0
 10
83.447184
 20
140.091724
 30
0.0
 10
83.114444
 20
141.333502
 30
0.0
 10
84.687551
 20
142.549316
 30
0.0
 10
85.905904
 20
143.099649
 30
0.0
 10
86.394149
 20
143.189113
 30
0.0
 10
86.133658
 20
145.169184
 30
0.0
 10
85.638640
 20
145.129391
 30
0.0
 10
84.319251
 20
145.345573
 30
0.0
 10
82.485371
 20
146.112936
 30
0.0
 10
82.485371
 20
147.398176
 30
0.0
 10
84.319251
 20
148.165538
 30
0.0
 10
85.638640
 20
148.381720
 30
0.0
 10
86.133658
 20
148.341927
 30
0.0
 10
86.394149
 20
150.321998
 30
0.0
 10
85.905904
 20
150.411462
 30
0.0
 10
84.687551
 20
150.961796
 30
0.0
 10
83.114444
 20
152.177609
 30
0.0
 10
83.447184
 20
153.419387
 30
0.0
 10
85.417378
 20
153.685804
 30
0.0
 10
86.747773
 20
153.553160
 30
0.0
 10
87.215416
 20
153.386649
 30
0.0
 10
87.979673
 20
155.231536
 30
0.0
 10
87.531222
 20
155.444613
 30
0.0
 10
86.496596
 20
156.291280
 30
0.0
 10
85.292071
 20
157.872853
 30
0.0
 10
85.934691
 20
158.986220
 30
0.0
 10
87.906578
 20
158.733631
 30
0.0
 10
89.157387
 20
158.261191
 30
0.0
 10
89.566044
 20
157.979251
 30
0.0
 10
90.781858
 20
159.563647
 30
0.0
 10
90.403680
 20
159.885380
 30
0.0
 10
89.623618
 20
160.971089
 30
0.0
 10
88.869238
 20
162.810613
 30
0.0
 10
89.778276
 20
163.719651
 30
0.0
 10
91.617800
 20
162.965271
 30
0.0
 10
92.703509
 20
162.185209
 30
0.0
 10
93.025242
 20
161.807031
 30
0.0
 10
94.609638
 20
163.022844
 30
0.0
 10
94.327698
 20
163.431502
 30
0.0
 10
93.855258
 20
164.682311
 30
0.0
 10
93.602669
 20
166.654198
 30
0.0
 10
94.716036
 20
167.296818
 30
0.0
 10
96.297609
 20
166.092293
 30
0.0
 10
97.144276
 20
165.057667
 30
0.0
 10
97.357353
 20
164.609216
 30
0.0
 10
99.202240
 20
165.373473
 30
0.0
 10
99.035729
 20
165.841116
 30
0.0
 10
98.903084
 20
167.171511
 30
0.0
 10
99.169502
 20
169.141704
 30
0.0
 10
100.411280
 20
169.474444
 30
0.0
 10
101.627093
 20
167.901338
 30
0.0
 10
102.177427
 20
166.682984
 30
0.0
 10
102.266891
 20
166.194740
 30
0.0
 10
104.246962
 20
166.455231
 30
0.0
 10
104.207169
 20
166.950249
 30
0.0
 10
104.423351
 20
168.269638
 30
0.0
 10
105.190713
 20
170.103518
 30
0.0
 10
106.475953
 20
170.103518
 30
0.0
 10
107.243316
 20
168.269638
 30
0.0
 10
107.459498
 20
166.950249
 30
0.0
 10
107.419704
 20
166.455231
 30
0.0
 10
109.399776
 20
166.194740
 30
0.0
 10
109.489240
 20
166.682984
 30
0.0
 10
110.039573
 20
167.901338
 30
0.0
 10
111.255387
 20
169.474444
 30
0.0
 10
112.497164
 20
169.141704
 30
0.0
 10
112.763582
 20
167.171511
 30
0.0
 10
112.630938
 20
165.841116
 30
0.0
 10
112.464427
 20
165.373473
 30
0.0
 10
114.309313
 20
164.609216
 30
0.0
 10
114.522391
 20
165.057667
 30
0.0
 10
115.369058
 20
166.092293
 30
0.0
 10
116.950631
 20
167.296818
 30
0.0
 10
118.063998
 20
166.654198
 30
0.0
 10
117.811409
 20
164.682311
 30
0.0
 10
117.338969
 20
163.431502
 30
0.0
 10
117.057029
 20
163.022844
 30
0.0
 10
118.641424
 20
161.807031
 30
0.0
 10
118.963158
 20
162.185209
 30
0.0
 10
120.048867
 20
162.965271
 30
0.0
 10
121.888391
 20
163.719651
 30
0.0
 10
122.797429
 20
162.810613
 30
0.0
 10
122.043049
 20
160.971089
 30
0.0
 10
121.262987
 20
159.885380
 30
0.0
 10
120.884809
 20
159.563647
 30
0.0
 10
122.100622
 20
157.979251
 30
0.0
 10
122.509280
 20
158.261191
 30
0.0
 10
123.760089
 20
158.733631
 30
0.0
 10
125.731976
 20
158.986220
 30
0.0
 10
126.374596
 20
157.872853
 30
0.0
 10
125.170071
 20
156.291280
 30
0.0
 10
124.135444
 20
155.444613
 30
0.0
 10
123.686993
 20
155.231536
 30
0.0
 10
124.451251
 20
153.386649
 30
0.0
 10
124.918893
 20
153.553160
 30
0.0
 10
126.249289
 20
153.685804
 30
0.0
 10
128.219482
 20
153.419387
 30
0.0
 10
128.552222
 20
152.177609
 30
0.0
 10
126.979116
 20
150.961796
 30
0.0
 10
125.760762
 20
150.411462
 30
0.0
 10
125.272518
 20
150.321998
 30
0.0
 10
125.533009
 20
148.341927
 30
0.0
  0
ENDSEC
  0
SECTION
  2
OBJECTS
  0
DICTIONARY
  5
C
330
0
100
AcDbDictionary
  3
ACAD_GROUP
350
D
  3
ACAD_MLINESTYLE
350
17
  0
DICTIONARY
  5
D
330
C
100
AcDbDictionary
  0
DICTIONARY
  5
1A
330
C
100
AcDbDictionary
  0
DICTIONARY
  5
17
330
C
100
AcDbDictionary
  3
STANDARD
350
18
  0
DICTIONARY
  5
19
330
C
100
AcDbDictionary
  0
ENDSEC
  0
EOF
